<svg xmlns="http://www.w3.org/2000/svg" xmlns:xlink="http://www.w3.org/1999/xlink" width="300" zoomAndPan="magnify" viewBox="0 0 224.87999 225" height="300" preserveAspectRatio="xMidYMid meet" version="1.0"><defs><g/><clipPath id="a1618e1d6b"><path d="M 3 100 L 38 100 L 38 119 L 3 119 Z M 3 100 " clip-rule="nonzero"/></clipPath><clipPath id="20e0765fb6"><path d="M 19.632812 87.128906 L 38.234375 103.136719 L 18.613281 125.9375 L 0.0117188 109.929688 Z M 19.632812 87.128906 " clip-rule="nonzero"/></clipPath><clipPath id="edebfc8883"><path d="M 38.257812 103.15625 L 19.65625 87.148438 L 0.0351562 109.953125 L 18.636719 125.960938 Z M 38.257812 103.15625 " clip-rule="nonzero"/></clipPath><clipPath id="18435d1880"><path d="M 21 108 L 38 108 L 38 130 L 21 130 Z M 21 108 " clip-rule="nonzero"/></clipPath><clipPath id="e0f76d02a9"><path d="M 21.03125 109.476562 L 37.648438 108.941406 L 38.296875 129.121094 L 21.683594 129.65625 Z M 21.03125 109.476562 " clip-rule="nonzero"/></clipPath><clipPath id="1ff908d43a"><path d="M 37.605469 108.945312 L 20.988281 109.480469 L 21.636719 129.65625 L 38.253906 129.121094 Z M 37.605469 108.945312 " clip-rule="nonzero"/></clipPath><clipPath id="262a25fe03"><path d="M 16 85 L 38 85 L 38 102 L 16 102 Z M 16 85 " clip-rule="nonzero"/></clipPath><clipPath id="72d2072574"><path d="M 36.734375 84.8125 L 37.453125 101.421875 L 17.28125 102.289062 L 16.566406 85.679688 Z M 36.734375 84.8125 " clip-rule="nonzero"/></clipPath><clipPath id="bf3687b08a"><path d="M 37.449219 101.378906 L 36.734375 84.769531 L 16.566406 85.636719 L 17.28125 102.246094 Z M 37.449219 101.378906 " clip-rule="nonzero"/></clipPath></defs><g fill="#000000" fill-opacity="1"><g transform="translate(41.578356, 115.312884)"><g><path d="M 12.078125 -19.046875 C 12.078125 -19.179688 12.171875 -19.296875 12.359375 -19.390625 C 12.554688 -19.492188 12.769531 -19.644531 13 -19.84375 C 13.226562 -20.050781 13.4375 -20.320312 13.625 -20.65625 C 13.8125 -20.988281 13.90625 -21.445312 13.90625 -22.03125 C 13.90625 -22.351562 13.847656 -22.691406 13.734375 -23.046875 C 13.617188 -23.410156 13.4375 -23.742188 13.1875 -24.046875 C 12.9375 -24.347656 12.597656 -24.59375 12.171875 -24.78125 C 11.753906 -24.976562 11.238281 -25.078125 10.625 -25.078125 C 9.613281 -25.078125 8.800781 -24.757812 8.1875 -24.125 C 7.582031 -23.488281 7.28125 -22.535156 7.28125 -21.265625 C 7.28125 -20.503906 7.519531 -19.804688 8 -19.171875 C 8.488281 -18.535156 9.113281 -17.941406 9.875 -17.390625 C 10.632812 -16.847656 11.476562 -16.3125 12.40625 -15.78125 C 13.332031 -15.25 14.238281 -14.6875 15.125 -14.09375 C 16.019531 -13.507812 16.832031 -12.878906 17.5625 -12.203125 C 18.300781 -11.535156 18.847656 -10.769531 19.203125 -9.90625 C 19.734375 -8.6875 19.929688 -7.46875 19.796875 -6.25 C 19.660156 -5.03125 19.203125 -3.929688 18.421875 -2.953125 C 17.648438 -1.972656 16.566406 -1.179688 15.171875 -0.578125 C 13.773438 0.015625 12.070312 0.3125 10.0625 0.3125 C 8.5625 0.3125 7.226562 0.144531 6.0625 -0.1875 C 4.894531 -0.519531 3.90625 -0.976562 3.09375 -1.5625 C 2.28125 -2.144531 1.65625 -2.828125 1.21875 -3.609375 C 0.789062 -4.398438 0.578125 -5.253906 0.578125 -6.171875 C 0.578125 -6.929688 0.695312 -7.609375 0.9375 -8.203125 C 1.175781 -8.804688 1.503906 -9.3125 1.921875 -9.71875 C 2.335938 -10.125 2.828125 -10.429688 3.390625 -10.640625 C 3.953125 -10.859375 4.550781 -10.96875 5.1875 -10.96875 C 5.539062 -10.96875 5.878906 -10.910156 6.203125 -10.796875 C 6.535156 -10.679688 6.832031 -10.546875 7.09375 -10.390625 C 7.363281 -10.242188 7.582031 -10.082031 7.75 -9.90625 C 7.914062 -9.726562 8 -9.578125 8 -9.453125 C 8 -9.273438 7.890625 -9.101562 7.671875 -8.9375 C 7.460938 -8.769531 7.222656 -8.550781 6.953125 -8.28125 C 6.691406 -8.019531 6.453125 -7.660156 6.234375 -7.203125 C 6.015625 -6.742188 5.90625 -6.117188 5.90625 -5.328125 C 5.90625 -4.691406 6.015625 -4.132812 6.234375 -3.65625 C 6.453125 -3.175781 6.75 -2.773438 7.125 -2.453125 C 7.507812 -2.140625 7.953125 -1.90625 8.453125 -1.75 C 8.960938 -1.601562 9.5 -1.53125 10.0625 -1.53125 C 10.875 -1.53125 11.550781 -1.640625 12.09375 -1.859375 C 12.644531 -2.085938 13.078125 -2.394531 13.390625 -2.78125 C 13.710938 -3.164062 13.941406 -3.609375 14.078125 -4.109375 C 14.222656 -4.617188 14.296875 -5.140625 14.296875 -5.671875 C 14.296875 -6.460938 14.007812 -7.175781 13.4375 -7.8125 C 12.863281 -8.445312 12.144531 -9.066406 11.28125 -9.671875 C 10.414062 -10.285156 9.460938 -10.894531 8.421875 -11.5 C 7.378906 -12.113281 6.390625 -12.769531 5.453125 -13.46875 C 4.515625 -14.164062 3.6875 -14.929688 2.96875 -15.765625 C 2.257812 -16.609375 1.800781 -17.566406 1.59375 -18.640625 C 1.363281 -19.753906 1.429688 -20.816406 1.796875 -21.828125 C 2.171875 -22.847656 2.765625 -23.738281 3.578125 -24.5 C 4.390625 -25.257812 5.40625 -25.863281 6.625 -26.3125 C 7.84375 -26.757812 9.191406 -26.984375 10.671875 -26.984375 C 11.890625 -26.984375 13.015625 -26.84375 14.046875 -26.5625 C 15.078125 -26.28125 15.957031 -25.882812 16.6875 -25.375 C 17.425781 -24.875 18 -24.25 18.40625 -23.5 C 18.8125 -22.75 19.015625 -21.890625 19.015625 -20.921875 C 19.015625 -20.335938 18.90625 -19.820312 18.6875 -19.375 C 18.476562 -18.9375 18.1875 -18.566406 17.8125 -18.265625 C 17.445312 -17.972656 17.035156 -17.75 16.578125 -17.59375 C 16.117188 -17.445312 15.648438 -17.375 15.171875 -17.375 C 14.179688 -17.375 13.414062 -17.578125 12.875 -17.984375 C 12.34375 -18.390625 12.078125 -18.742188 12.078125 -19.046875 Z M 12.078125 -19.046875 "/></g></g></g><g fill="#000000" fill-opacity="1"><g transform="translate(61.969347, 115.312884)"><g><path d="M 0.765625 -18.171875 C 1.066406 -18.171875 1.484375 -18.179688 2.015625 -18.203125 C 2.546875 -18.234375 3.117188 -18.285156 3.734375 -18.359375 C 4.347656 -18.441406 4.976562 -18.566406 5.625 -18.734375 C 6.269531 -18.898438 6.875 -19.132812 7.4375 -19.4375 L 7.8125 -19.4375 L 7.8125 -5.875 C 7.8125 -4.90625 7.984375 -4.195312 8.328125 -3.75 C 8.671875 -3.3125 9.125 -3.09375 9.6875 -3.09375 C 10.113281 -3.09375 10.523438 -3.21875 10.921875 -3.46875 C 11.316406 -3.71875 11.648438 -4 11.921875 -4.3125 C 12.253906 -4.664062 12.570312 -5.070312 12.875 -5.53125 L 12.875 -16.15625 C 12.875 -16.539062 12.75 -16.910156 12.5 -17.265625 C 12.25 -17.617188 11.929688 -17.796875 11.546875 -17.796875 L 11.546875 -18.171875 C 11.847656 -18.171875 12.265625 -18.179688 12.796875 -18.203125 C 13.335938 -18.234375 13.910156 -18.285156 14.515625 -18.359375 C 15.128906 -18.441406 15.757812 -18.566406 16.40625 -18.734375 C 17.050781 -18.898438 17.65625 -19.132812 18.21875 -19.4375 L 18.59375 -19.4375 L 18.59375 -2.890625 C 18.59375 -2.515625 18.71875 -2.144531 18.96875 -1.78125 C 19.226562 -1.425781 19.550781 -1.25 19.9375 -1.25 L 19.9375 -0.875 C 19.625 -0.875 19.203125 -0.859375 18.671875 -0.828125 C 18.140625 -0.804688 17.566406 -0.757812 16.953125 -0.6875 C 16.347656 -0.613281 15.71875 -0.492188 15.0625 -0.328125 C 14.414062 -0.160156 13.816406 0.0703125 13.265625 0.375 L 12.875 0.375 L 12.875 -2.25 C 12.289062 -1.632812 11.535156 -1.050781 10.609375 -0.5 C 9.679688 0.0390625 8.582031 0.3125 7.3125 0.3125 C 5.738281 0.3125 4.472656 -0.171875 3.515625 -1.140625 C 2.566406 -2.109375 2.09375 -3.632812 2.09375 -5.71875 L 2.09375 -16.15625 C 2.09375 -16.539062 1.960938 -16.910156 1.703125 -17.265625 C 1.453125 -17.617188 1.140625 -17.796875 0.765625 -17.796875 Z M 0.765625 -18.171875 "/></g></g></g><g fill="#000000" fill-opacity="1"><g transform="translate(82.665255, 115.312884)"><g><path d="M 7.8125 -17.875 C 8.289062 -18.332031 8.847656 -18.691406 9.484375 -18.953125 C 10.117188 -19.222656 10.84375 -19.359375 11.65625 -19.359375 C 12.78125 -19.359375 13.820312 -19.125 14.78125 -18.65625 C 15.75 -18.1875 16.59375 -17.519531 17.3125 -16.65625 C 18.039062 -15.789062 18.613281 -14.75 19.03125 -13.53125 C 19.457031 -12.3125 19.671875 -10.9375 19.671875 -9.40625 C 19.671875 -7.914062 19.457031 -6.566406 19.03125 -5.359375 C 18.613281 -4.148438 18.039062 -3.125 17.3125 -2.28125 C 16.59375 -1.445312 15.75 -0.804688 14.78125 -0.359375 C 13.820312 0.0859375 12.78125 0.3125 11.65625 0.3125 C 10.875 0.3125 10.210938 0.242188 9.671875 0.109375 C 9.140625 -0.015625 8.644531 -0.160156 8.1875 -0.328125 C 7.726562 -0.492188 7.285156 -0.640625 6.859375 -0.765625 C 6.429688 -0.890625 5.9375 -0.953125 5.375 -0.953125 C 4.988281 -0.953125 4.625 -0.890625 4.28125 -0.765625 C 3.9375 -0.640625 3.628906 -0.5 3.359375 -0.34375 C 3.023438 -0.132812 2.734375 0.0820312 2.484375 0.3125 L 2.09375 0.3125 L 2.09375 -25.109375 C 2.09375 -25.492188 1.960938 -25.863281 1.703125 -26.21875 C 1.453125 -26.570312 1.140625 -26.75 0.765625 -26.75 L 0.765625 -27.140625 C 1.066406 -27.140625 1.484375 -27.148438 2.015625 -27.171875 C 2.546875 -27.191406 3.117188 -27.238281 3.734375 -27.3125 C 4.347656 -27.394531 4.976562 -27.519531 5.625 -27.6875 C 6.269531 -27.851562 6.875 -28.085938 7.4375 -28.390625 L 7.8125 -28.390625 Z M 10.515625 -1.71875 C 10.816406 -1.71875 11.160156 -1.835938 11.546875 -2.078125 C 11.929688 -2.316406 12.28125 -2.726562 12.59375 -3.3125 C 12.914062 -3.894531 13.1875 -4.679688 13.40625 -5.671875 C 13.632812 -6.671875 13.75 -7.914062 13.75 -9.40625 C 13.75 -10.9375 13.632812 -12.207031 13.40625 -13.21875 C 13.1875 -14.238281 12.914062 -15.050781 12.59375 -15.65625 C 12.28125 -16.269531 11.929688 -16.703125 11.546875 -16.953125 C 11.160156 -17.210938 10.816406 -17.34375 10.515625 -17.34375 C 10.265625 -17.34375 9.984375 -17.210938 9.671875 -16.953125 C 9.367188 -16.703125 9.078125 -16.269531 8.796875 -15.65625 C 8.523438 -15.050781 8.289062 -14.238281 8.09375 -13.21875 C 7.90625 -12.207031 7.8125 -10.9375 7.8125 -9.40625 C 7.8125 -7.882812 7.882812 -6.628906 8.03125 -5.640625 C 8.1875 -4.648438 8.382812 -3.863281 8.625 -3.28125 C 8.875 -2.695312 9.160156 -2.289062 9.484375 -2.0625 C 9.816406 -1.832031 10.160156 -1.71875 10.515625 -1.71875 Z M 10.515625 -1.71875 "/></g></g></g><g fill="#000000" fill-opacity="1"><g transform="translate(102.903796, 115.312884)"><g><path d="M 0.953125 0 L 0.953125 -0.375 C 1.335938 -0.375 1.65625 -0.539062 1.90625 -0.875 C 2.15625 -1.207031 2.28125 -1.5625 2.28125 -1.9375 L 2.28125 -25.109375 C 2.28125 -25.492188 2.15625 -25.863281 1.90625 -26.21875 C 1.65625 -26.570312 1.335938 -26.75 0.953125 -26.75 L 0.953125 -27.140625 C 1.253906 -27.140625 1.671875 -27.148438 2.203125 -27.171875 C 2.742188 -27.191406 3.316406 -27.238281 3.921875 -27.3125 C 4.535156 -27.394531 5.164062 -27.519531 5.8125 -27.6875 C 6.457031 -27.851562 7.0625 -28.085938 7.625 -28.390625 L 8 -28.390625 L 8 -1.9375 C 8 -1.5625 8.125 -1.207031 8.375 -0.875 C 8.632812 -0.539062 8.957031 -0.375 9.34375 -0.375 L 9.34375 0 Z M 0.953125 0 "/></g></g></g><g fill="#000000" fill-opacity="1"><g transform="translate(113.004005, 115.312884)"><g><path d="M 0.953125 -0.375 C 1.335938 -0.375 1.65625 -0.539062 1.90625 -0.875 C 2.15625 -1.207031 2.28125 -1.5625 2.28125 -1.9375 L 2.28125 -16.15625 C 2.28125 -16.539062 2.15625 -16.910156 1.90625 -17.265625 C 1.65625 -17.617188 1.335938 -17.796875 0.953125 -17.796875 L 0.953125 -18.171875 C 1.253906 -18.171875 1.671875 -18.179688 2.203125 -18.203125 C 2.742188 -18.234375 3.316406 -18.285156 3.921875 -18.359375 C 4.535156 -18.441406 5.164062 -18.566406 5.8125 -18.734375 C 6.457031 -18.898438 7.0625 -19.132812 7.625 -19.4375 L 8 -19.4375 L 8 -1.9375 C 8 -1.5625 8.125 -1.207031 8.375 -0.875 C 8.632812 -0.539062 8.957031 -0.375 9.34375 -0.375 L 9.34375 0 L 0.953125 0 Z M 1.53125 -24.015625 C 1.53125 -24.972656 1.828125 -25.75 2.421875 -26.34375 C 3.015625 -26.945312 3.796875 -27.25 4.765625 -27.25 C 5.734375 -27.25 6.515625 -26.945312 7.109375 -26.34375 C 7.703125 -25.75 8 -24.972656 8 -24.015625 C 8 -23.046875 7.703125 -22.257812 7.109375 -21.65625 C 6.515625 -21.0625 5.734375 -20.765625 4.765625 -20.765625 C 3.796875 -20.765625 3.015625 -21.0625 2.421875 -21.65625 C 1.828125 -22.257812 1.53125 -23.046875 1.53125 -24.015625 Z M 1.53125 -24.015625 "/></g></g></g><g fill="#000000" fill-opacity="1"><g transform="translate(123.104214, 115.312884)"><g><path d="M 0.953125 -17.796875 L 0.953125 -18.171875 C 1.253906 -18.171875 1.671875 -18.179688 2.203125 -18.203125 C 2.742188 -18.234375 3.316406 -18.285156 3.921875 -18.359375 C 4.535156 -18.441406 5.164062 -18.566406 5.8125 -18.734375 C 6.457031 -18.898438 7.0625 -19.132812 7.625 -19.4375 L 8 -19.4375 L 8 -16.8125 C 8.582031 -17.414062 9.335938 -17.988281 10.265625 -18.53125 C 11.191406 -19.082031 12.289062 -19.359375 13.5625 -19.359375 C 14.707031 -19.359375 15.695312 -19.113281 16.53125 -18.625 C 17.375 -18.144531 17.988281 -17.375 18.375 -16.3125 C 18.644531 -16.644531 18.976562 -16.988281 19.375 -17.34375 C 19.769531 -17.695312 20.210938 -18.023438 20.703125 -18.328125 C 21.203125 -18.628906 21.753906 -18.875 22.359375 -19.0625 C 22.972656 -19.257812 23.640625 -19.359375 24.359375 -19.359375 C 25.929688 -19.359375 27.191406 -18.90625 28.140625 -18 C 29.097656 -17.101562 29.578125 -15.613281 29.578125 -13.53125 L 29.578125 -1.9375 C 29.578125 -1.5625 29.703125 -1.207031 29.953125 -0.875 C 30.203125 -0.539062 30.519531 -0.375 30.90625 -0.375 L 30.90625 0 L 22.515625 0 L 22.515625 -0.375 C 22.898438 -0.375 23.21875 -0.539062 23.46875 -0.875 C 23.726562 -1.207031 23.859375 -1.5625 23.859375 -1.9375 L 23.859375 -13.5625 C 23.859375 -14.53125 23.6875 -15.171875 23.34375 -15.484375 C 23 -15.804688 22.546875 -15.96875 21.984375 -15.96875 C 21.554688 -15.96875 21.148438 -15.835938 20.765625 -15.578125 C 20.390625 -15.328125 20.046875 -15.050781 19.734375 -14.75 C 19.410156 -14.394531 19.09375 -13.988281 18.78125 -13.53125 L 18.78125 -1.9375 C 18.78125 -1.5625 18.90625 -1.207031 19.15625 -0.875 C 19.414062 -0.539062 19.738281 -0.375 20.125 -0.375 L 20.125 0 L 11.734375 0 L 11.734375 -0.375 C 12.117188 -0.375 12.4375 -0.539062 12.6875 -0.875 C 12.945312 -1.207031 13.078125 -1.5625 13.078125 -1.9375 L 13.078125 -13.5625 C 13.078125 -14.53125 12.90625 -15.171875 12.5625 -15.484375 C 12.21875 -15.804688 11.765625 -15.96875 11.203125 -15.96875 C 10.773438 -15.96875 10.367188 -15.835938 9.984375 -15.578125 C 9.597656 -15.328125 9.253906 -15.050781 8.953125 -14.75 C 8.617188 -14.394531 8.300781 -13.988281 8 -13.53125 L 8 -1.9375 C 8 -1.5625 8.125 -1.207031 8.375 -0.875 C 8.632812 -0.539062 8.957031 -0.375 9.34375 -0.375 L 9.34375 0 L 0.953125 0 L 0.953125 -0.375 C 1.335938 -0.375 1.65625 -0.539062 1.90625 -0.875 C 2.15625 -1.207031 2.28125 -1.5625 2.28125 -1.9375 L 2.28125 -16.15625 C 2.28125 -16.539062 2.15625 -16.910156 1.90625 -17.265625 C 1.65625 -17.617188 1.335938 -17.796875 0.953125 -17.796875 Z M 0.953125 -17.796875 "/></g></g></g><g fill="#000000" fill-opacity="1"><g transform="translate(154.776952, 115.312884)"><g><path d="M 10.625 -12.15625 C 10.757812 -12.8125 10.84375 -13.453125 10.875 -14.078125 C 10.914062 -14.703125 10.878906 -15.269531 10.765625 -15.78125 C 10.648438 -16.289062 10.429688 -16.695312 10.109375 -17 C 9.796875 -17.300781 9.335938 -17.453125 8.734375 -17.453125 C 8.222656 -17.453125 7.738281 -17.226562 7.28125 -16.78125 C 6.820312 -16.34375 6.59375 -15.691406 6.59375 -14.828125 C 6.59375 -14.335938 6.632812 -13.945312 6.71875 -13.65625 C 6.8125 -13.363281 6.898438 -13.128906 6.984375 -12.953125 C 7.078125 -12.773438 7.164062 -12.648438 7.25 -12.578125 C 7.34375 -12.503906 7.390625 -12.425781 7.390625 -12.34375 C 7.390625 -11.988281 7.1875 -11.644531 6.78125 -11.3125 C 6.375 -10.988281 5.78125 -10.828125 5 -10.828125 C 4.613281 -10.828125 4.21875 -10.890625 3.8125 -11.015625 C 3.40625 -11.140625 3.039062 -11.34375 2.71875 -11.625 C 2.40625 -11.90625 2.160156 -12.28125 1.984375 -12.75 C 1.804688 -13.21875 1.742188 -13.796875 1.796875 -14.484375 C 1.867188 -15.222656 2.082031 -15.894531 2.4375 -16.5 C 2.789062 -17.113281 3.265625 -17.628906 3.859375 -18.046875 C 4.460938 -18.460938 5.164062 -18.785156 5.96875 -19.015625 C 6.769531 -19.242188 7.640625 -19.359375 8.578125 -19.359375 C 9.515625 -19.359375 10.445312 -19.25 11.375 -19.03125 C 12.300781 -18.820312 13.132812 -18.4375 13.875 -17.875 C 14.613281 -17.3125 15.207031 -16.546875 15.65625 -15.578125 C 16.113281 -14.617188 16.34375 -13.398438 16.34375 -11.921875 L 16.34375 -3.4375 C 16.34375 -2.800781 16.4375 -2.367188 16.625 -2.140625 C 16.820312 -1.910156 17.0625 -1.796875 17.34375 -1.796875 C 17.519531 -1.796875 17.695312 -1.832031 17.875 -1.90625 C 18.050781 -1.976562 18.203125 -2.054688 18.328125 -2.140625 L 18.515625 -1.75 C 17.648438 -1.039062 16.863281 -0.519531 16.15625 -0.1875 C 15.445312 0.144531 14.609375 0.3125 13.640625 0.3125 C 12.753906 0.3125 12.03125 0.0546875 11.46875 -0.453125 C 10.90625 -0.960938 10.625 -1.6875 10.625 -2.625 C 10.144531 -2.070312 9.625 -1.59375 9.0625 -1.1875 C 8.582031 -0.800781 8.023438 -0.453125 7.390625 -0.140625 C 6.753906 0.160156 6.066406 0.3125 5.328125 0.3125 C 4.566406 0.3125 3.890625 0.1875 3.296875 -0.0625 C 2.703125 -0.320312 2.203125 -0.660156 1.796875 -1.078125 C 1.390625 -1.503906 1.082031 -1.984375 0.875 -2.515625 C 0.675781 -3.046875 0.578125 -3.59375 0.578125 -4.15625 C 0.578125 -5.070312 0.796875 -5.835938 1.234375 -6.453125 C 1.679688 -7.078125 2.238281 -7.601562 2.90625 -8.03125 C 3.582031 -8.46875 4.328125 -8.84375 5.140625 -9.15625 C 5.953125 -9.476562 6.734375 -9.785156 7.484375 -10.078125 C 8.234375 -10.367188 8.894531 -10.671875 9.46875 -10.984375 C 10.039062 -11.304688 10.425781 -11.695312 10.625 -12.15625 Z M 6.328125 -4.953125 C 6.328125 -4.347656 6.476562 -3.863281 6.78125 -3.5 C 7.082031 -3.144531 7.488281 -2.96875 8 -2.96875 C 8.332031 -2.96875 8.648438 -3.035156 8.953125 -3.171875 C 9.253906 -3.316406 9.535156 -3.476562 9.796875 -3.65625 C 10.078125 -3.832031 10.351562 -4.050781 10.625 -4.3125 L 10.625 -9.296875 C 10.175781 -9.117188 9.703125 -8.882812 9.203125 -8.59375 C 8.703125 -8.300781 8.238281 -7.976562 7.8125 -7.625 C 7.382812 -7.269531 7.03125 -6.867188 6.75 -6.421875 C 6.46875 -5.972656 6.328125 -5.484375 6.328125 -4.953125 Z M 6.328125 -4.953125 "/></g></g></g><g fill="#000000" fill-opacity="1"><g transform="translate(173.490939, 115.312884)"><g><path d="M 0.953125 -17.71875 L 0.953125 -18.109375 C 1.253906 -18.109375 1.671875 -18.117188 2.203125 -18.140625 C 2.742188 -18.160156 3.316406 -18.207031 3.921875 -18.28125 C 4.535156 -18.363281 5.164062 -18.488281 5.8125 -18.65625 C 6.457031 -18.820312 7.0625 -19.054688 7.625 -19.359375 L 8 -19.359375 L 8 -16.390625 C 8.226562 -16.617188 8.515625 -16.894531 8.859375 -17.21875 C 9.203125 -17.550781 9.613281 -17.875 10.09375 -18.1875 C 10.582031 -18.507812 11.132812 -18.785156 11.75 -19.015625 C 12.375 -19.242188 13.054688 -19.359375 13.796875 -19.359375 C 15.117188 -19.359375 16.128906 -18.992188 16.828125 -18.265625 C 17.523438 -17.546875 17.875 -16.578125 17.875 -15.359375 C 17.875 -14.742188 17.769531 -14.210938 17.5625 -13.765625 C 17.363281 -13.328125 17.109375 -12.953125 16.796875 -12.640625 C 16.492188 -12.335938 16.144531 -12.117188 15.75 -11.984375 C 15.363281 -11.847656 14.976562 -11.78125 14.59375 -11.78125 C 13.832031 -11.800781 13.207031 -11.976562 12.71875 -12.3125 C 12.238281 -12.644531 12 -12.988281 12 -13.34375 C 12 -13.414062 12.050781 -13.519531 12.15625 -13.65625 C 12.257812 -13.800781 12.367188 -13.976562 12.484375 -14.1875 C 12.597656 -14.40625 12.703125 -14.660156 12.796875 -14.953125 C 12.898438 -15.242188 12.953125 -15.554688 12.953125 -15.890625 C 12.953125 -16.273438 12.867188 -16.5625 12.703125 -16.75 C 12.546875 -16.9375 12.335938 -17.03125 12.078125 -17.03125 C 11.703125 -17.03125 11.273438 -16.859375 10.796875 -16.515625 C 10.328125 -16.171875 9.882812 -15.707031 9.46875 -15.125 C 9.050781 -14.539062 8.703125 -13.867188 8.421875 -13.109375 C 8.140625 -12.347656 8 -11.546875 8 -10.703125 L 8 -1.9375 C 8 -1.5625 8.125 -1.207031 8.375 -0.875 C 8.632812 -0.539062 8.957031 -0.375 9.34375 -0.375 L 9.34375 0 L 0.953125 0 L 0.953125 -0.375 C 1.335938 -0.375 1.65625 -0.539062 1.90625 -0.875 C 2.15625 -1.207031 2.28125 -1.5625 2.28125 -1.9375 L 2.28125 -16.078125 C 2.28125 -16.460938 2.15625 -16.832031 1.90625 -17.1875 C 1.65625 -17.539062 1.335938 -17.71875 0.953125 -17.71875 Z M 0.953125 -17.71875 "/></g></g></g><g fill="#000000" fill-opacity="1"><g transform="translate(191.747551, 115.312884)"><g><path d="M 0.578125 -19.046875 L 1.90625 -19.046875 C 2.382812 -19.046875 2.851562 -19.1875 3.3125 -19.46875 C 3.769531 -19.75 4.175781 -20.097656 4.53125 -20.515625 C 4.882812 -20.941406 5.171875 -21.40625 5.390625 -21.90625 C 5.609375 -22.414062 5.71875 -22.914062 5.71875 -23.40625 L 7.625 -23.40625 L 7.625 -19.046875 L 10.296875 -19.046875 L 10.296875 -17.15625 L 7.625 -17.15625 L 7.625 -4.109375 C 7.625 -3.453125 7.757812 -3.007812 8.03125 -2.78125 C 8.3125 -2.550781 8.617188 -2.4375 8.953125 -2.4375 C 9.160156 -2.4375 9.363281 -2.46875 9.5625 -2.53125 C 9.769531 -2.59375 9.9375 -2.664062 10.0625 -2.75 L 10.359375 -2.0625 C 9.984375 -1.625 9.566406 -1.226562 9.109375 -0.875 C 8.703125 -0.59375 8.222656 -0.320312 7.671875 -0.0625 C 7.128906 0.1875 6.515625 0.3125 5.828125 0.3125 C 4.679688 0.3125 3.738281 -0.0390625 3 -0.75 C 2.269531 -1.46875 1.90625 -2.566406 1.90625 -4.046875 L 1.90625 -17.15625 L 0.578125 -17.15625 Z M 0.578125 -19.046875 "/></g></g></g><g fill="#000000" fill-opacity="1"><g transform="translate(202.686281, 115.312884)"><g><path d="M 9.828125 -19.359375 C 10.515625 -19.359375 11.234375 -19.257812 11.984375 -19.0625 C 12.734375 -18.875 13.410156 -18.578125 14.015625 -18.171875 C 14.628906 -17.765625 15.132812 -17.238281 15.53125 -16.59375 C 15.925781 -15.945312 16.125 -15.164062 16.125 -14.25 C 16.125 -13.46875 15.898438 -12.707031 15.453125 -11.96875 C 15.003906 -11.226562 14.378906 -10.570312 13.578125 -10 C 12.785156 -9.425781 11.820312 -8.960938 10.6875 -8.609375 C 9.5625 -8.253906 8.296875 -8.078125 6.890625 -8.078125 L 6.59375 -8.078125 C 6.75 -6.859375 7.015625 -5.859375 7.390625 -5.078125 C 7.773438 -4.304688 8.210938 -3.691406 8.703125 -3.234375 C 9.203125 -2.773438 9.71875 -2.460938 10.25 -2.296875 C 10.78125 -2.140625 11.265625 -2.0625 11.703125 -2.0625 C 12.617188 -2.0625 13.445312 -2.253906 14.1875 -2.640625 C 14.9375 -3.035156 15.539062 -3.410156 16 -3.765625 L 16.265625 -3.5 C 16.066406 -3.175781 15.789062 -2.789062 15.4375 -2.34375 C 15.082031 -1.894531 14.648438 -1.472656 14.140625 -1.078125 C 13.628906 -0.691406 13.019531 -0.363281 12.3125 -0.09375 C 11.601562 0.175781 10.773438 0.3125 9.828125 0.3125 C 8.503906 0.3125 7.273438 0.0859375 6.140625 -0.359375 C 5.015625 -0.804688 4.039062 -1.445312 3.21875 -2.28125 C 2.394531 -3.125 1.75 -4.148438 1.28125 -5.359375 C 0.8125 -6.566406 0.578125 -7.914062 0.578125 -9.40625 C 0.578125 -10.9375 0.8125 -12.3125 1.28125 -13.53125 C 1.75 -14.75 2.394531 -15.789062 3.21875 -16.65625 C 4.039062 -17.519531 5.015625 -18.1875 6.140625 -18.65625 C 7.273438 -19.125 8.503906 -19.359375 9.828125 -19.359375 Z M 9.828125 -17.453125 C 9.367188 -17.453125 8.921875 -17.320312 8.484375 -17.0625 C 8.054688 -16.8125 7.679688 -16.378906 7.359375 -15.765625 C 7.046875 -15.160156 6.804688 -14.359375 6.640625 -13.359375 C 6.484375 -12.359375 6.429688 -11.109375 6.484375 -9.609375 C 7.703125 -9.929688 8.648438 -10.519531 9.328125 -11.375 C 10.015625 -12.226562 10.472656 -13.101562 10.703125 -14 C 10.929688 -14.90625 10.960938 -15.707031 10.796875 -16.40625 C 10.640625 -17.101562 10.316406 -17.453125 9.828125 -17.453125 Z M 9.828125 -17.453125 "/></g></g></g><path stroke-linecap="butt" transform="matrix(0.395834, 0, 0, 0.395834, 43.491433, 119.428096)" fill="none" stroke-linejoin="miter" d="M 0.00190549 3.004016 L 439.935283 3.004016 " stroke="#000000" stroke-width="6" stroke-opacity="1" stroke-miterlimit="4"/><g fill="#000000" fill-opacity="1"><g transform="translate(64.361924, 137.054483)"><g><path d="M 3.25 -9.78125 C 3.75 -9.78125 4.179688 -9.671875 4.546875 -9.453125 C 4.910156 -9.210938 5.207031 -8.910156 5.4375 -8.546875 C 5.675781 -8.179688 5.84375 -7.773438 5.9375 -7.328125 C 6.03125 -6.867188 6.0625 -6.410156 6.03125 -5.953125 C 5.988281 -5.484375 5.882812 -5.039062 5.71875 -4.625 C 5.53125 -4.207031 5.285156 -3.859375 4.984375 -3.578125 C 4.859375 -3.460938 4.828125 -3.320312 4.890625 -3.15625 L 5.84375 -0.515625 C 5.882812 -0.390625 5.867188 -0.273438 5.796875 -0.171875 C 5.722656 -0.0546875 5.613281 0 5.46875 0 L 4.703125 0 C 4.523438 0 4.40625 -0.0820312 4.34375 -0.25 L 3.46875 -2.65625 C 3.40625 -2.820312 3.28125 -2.90625 3.09375 -2.90625 L 2.5625 -2.90625 C 2.457031 -2.90625 2.367188 -2.867188 2.296875 -2.796875 C 2.210938 -2.722656 2.171875 -2.628906 2.171875 -2.515625 L 2.171875 -0.390625 C 2.171875 -0.285156 2.132812 -0.195312 2.0625 -0.125 C 1.988281 -0.0390625 1.894531 0 1.78125 0 L 1.046875 0 C 0.941406 0 0.851562 -0.0390625 0.78125 -0.125 C 0.707031 -0.195312 0.671875 -0.285156 0.671875 -0.390625 L 0.671875 -9.390625 C 0.671875 -9.492188 0.707031 -9.585938 0.78125 -9.671875 C 0.851562 -9.742188 0.941406 -9.78125 1.046875 -9.78125 Z M 2.171875 -4.796875 C 2.171875 -4.691406 2.210938 -4.601562 2.296875 -4.53125 C 2.367188 -4.457031 2.457031 -4.421875 2.5625 -4.421875 L 3.28125 -4.421875 C 3.5625 -4.421875 3.789062 -4.515625 3.96875 -4.703125 C 4.15625 -4.890625 4.300781 -5.128906 4.40625 -5.421875 C 4.5 -5.703125 4.546875 -6.015625 4.546875 -6.359375 C 4.546875 -6.679688 4.503906 -6.984375 4.421875 -7.265625 C 4.316406 -7.554688 4.171875 -7.800781 3.984375 -8 C 3.796875 -8.175781 3.5625 -8.265625 3.28125 -8.265625 L 2.5625 -8.265625 C 2.457031 -8.265625 2.367188 -8.234375 2.296875 -8.171875 C 2.210938 -8.085938 2.171875 -7.992188 2.171875 -7.890625 Z M 2.171875 -4.796875 "/></g></g></g><g fill="#000000" fill-opacity="1"><g transform="translate(76.362187, 137.054483)"><g><path d="M 5.46875 -8.65625 C 5.46875 -8.550781 5.429688 -8.460938 5.359375 -8.390625 C 5.285156 -8.304688 5.191406 -8.265625 5.078125 -8.265625 L 2.5625 -8.265625 C 2.457031 -8.265625 2.367188 -8.234375 2.296875 -8.171875 C 2.210938 -8.085938 2.171875 -7.992188 2.171875 -7.890625 L 2.171875 -7.078125 C 2.171875 -6.972656 2.210938 -6.882812 2.296875 -6.8125 C 2.367188 -6.738281 2.457031 -6.703125 2.5625 -6.703125 L 4.234375 -6.703125 C 4.347656 -6.703125 4.445312 -6.664062 4.53125 -6.59375 C 4.59375 -6.507812 4.625 -6.414062 4.625 -6.3125 L 4.625 -5.59375 C 4.625 -5.488281 4.59375 -5.394531 4.53125 -5.3125 C 4.445312 -5.226562 4.347656 -5.1875 4.234375 -5.1875 L 2.5625 -5.1875 C 2.457031 -5.1875 2.367188 -5.148438 2.296875 -5.078125 C 2.210938 -5.003906 2.171875 -4.910156 2.171875 -4.796875 L 2.171875 -1.890625 C 2.171875 -1.785156 2.210938 -1.695312 2.296875 -1.625 C 2.367188 -1.550781 2.457031 -1.515625 2.5625 -1.515625 L 5.078125 -1.515625 C 5.191406 -1.515625 5.285156 -1.476562 5.359375 -1.40625 C 5.429688 -1.320312 5.46875 -1.226562 5.46875 -1.125 L 5.46875 -0.390625 C 5.46875 -0.285156 5.429688 -0.195312 5.359375 -0.125 C 5.285156 -0.0390625 5.191406 0 5.078125 0 L 1.046875 0 C 0.941406 0 0.851562 -0.0390625 0.78125 -0.125 C 0.707031 -0.195312 0.671875 -0.285156 0.671875 -0.390625 L 0.671875 -9.390625 C 0.671875 -9.492188 0.707031 -9.585938 0.78125 -9.671875 C 0.851562 -9.742188 0.941406 -9.78125 1.046875 -9.78125 L 5.078125 -9.78125 C 5.191406 -9.78125 5.285156 -9.742188 5.359375 -9.671875 C 5.429688 -9.585938 5.46875 -9.492188 5.46875 -9.390625 Z M 5.46875 -8.65625 "/></g></g></g><g fill="#000000" fill-opacity="1"><g transform="translate(87.788561, 137.054483)"><g><path d="M 7.921875 -1.8125 C 7.972656 -1.789062 8.007812 -1.75 8.03125 -1.6875 C 8.039062 -1.625 8.03125 -1.566406 8 -1.515625 C 7.625 -1.015625 7.164062 -0.640625 6.625 -0.390625 C 6.082031 -0.128906 5.476562 0 4.8125 0 C 3.457031 0 2.398438 -0.503906 1.640625 -1.515625 C 0.992188 -2.390625 0.671875 -3.515625 0.671875 -4.890625 C 0.671875 -5.566406 0.753906 -6.191406 0.921875 -6.765625 C 1.078125 -7.335938 1.316406 -7.835938 1.640625 -8.265625 C 2.015625 -8.765625 2.472656 -9.144531 3.015625 -9.40625 C 3.546875 -9.65625 4.144531 -9.78125 4.8125 -9.78125 C 5.476562 -9.78125 6.082031 -9.65625 6.625 -9.40625 C 7.164062 -9.144531 7.625 -8.765625 8 -8.265625 C 8.03125 -8.210938 8.039062 -8.15625 8.03125 -8.09375 C 8.007812 -8.03125 7.972656 -7.988281 7.921875 -7.96875 L 6.984375 -7.40625 C 6.867188 -7.363281 6.78125 -7.378906 6.71875 -7.453125 C 6.5625 -7.628906 6.398438 -7.773438 6.234375 -7.890625 C 6.054688 -7.992188 5.882812 -8.078125 5.71875 -8.140625 C 5.539062 -8.191406 5.378906 -8.226562 5.234375 -8.25 C 5.066406 -8.257812 4.925781 -8.265625 4.8125 -8.265625 C 4.613281 -8.265625 4.363281 -8.238281 4.0625 -8.1875 C 3.757812 -8.113281 3.472656 -7.957031 3.203125 -7.71875 C 2.921875 -7.488281 2.679688 -7.15625 2.484375 -6.71875 C 2.273438 -6.257812 2.171875 -5.648438 2.171875 -4.890625 C 2.171875 -4.117188 2.273438 -3.507812 2.484375 -3.0625 C 2.679688 -2.625 2.921875 -2.289062 3.203125 -2.0625 C 3.472656 -1.820312 3.757812 -1.671875 4.0625 -1.609375 C 4.363281 -1.546875 4.613281 -1.515625 4.8125 -1.515625 C 4.925781 -1.515625 5.066406 -1.519531 5.234375 -1.53125 C 5.378906 -1.550781 5.539062 -1.59375 5.71875 -1.65625 C 5.882812 -1.707031 6.054688 -1.785156 6.234375 -1.890625 C 6.398438 -2.003906 6.5625 -2.148438 6.71875 -2.328125 C 6.78125 -2.410156 6.867188 -2.421875 6.984375 -2.359375 Z M 7.921875 -1.8125 "/></g></g></g><g fill="#000000" fill-opacity="1"><g transform="translate(101.777391, 137.054483)"><g><path d="M 4.375 0 C 3.132812 0 2.179688 -0.515625 1.515625 -1.546875 C 0.953125 -2.421875 0.671875 -3.535156 0.671875 -4.890625 C 0.671875 -5.554688 0.738281 -6.171875 0.875 -6.734375 C 1.019531 -7.296875 1.234375 -7.789062 1.515625 -8.21875 C 2.179688 -9.257812 3.132812 -9.78125 4.375 -9.78125 C 5.613281 -9.78125 6.570312 -9.257812 7.25 -8.21875 C 7.519531 -7.789062 7.726562 -7.296875 7.875 -6.734375 C 8.019531 -6.171875 8.09375 -5.554688 8.09375 -4.890625 C 8.09375 -3.535156 7.8125 -2.421875 7.25 -1.546875 C 6.570312 -0.515625 5.613281 0 4.375 0 Z M 4.375 -8.265625 C 4.039062 -8.265625 3.753906 -8.207031 3.515625 -8.09375 C 3.273438 -7.957031 3.070312 -7.785156 2.90625 -7.578125 C 2.738281 -7.367188 2.609375 -7.140625 2.515625 -6.890625 C 2.410156 -6.628906 2.335938 -6.375 2.296875 -6.125 C 2.242188 -5.863281 2.210938 -5.628906 2.203125 -5.421875 C 2.179688 -5.191406 2.171875 -5.015625 2.171875 -4.890625 C 2.171875 -4.753906 2.179688 -4.578125 2.203125 -4.359375 C 2.210938 -4.140625 2.242188 -3.90625 2.296875 -3.65625 C 2.335938 -3.40625 2.410156 -3.15625 2.515625 -2.90625 C 2.609375 -2.644531 2.738281 -2.414062 2.90625 -2.21875 C 3.070312 -2 3.273438 -1.828125 3.515625 -1.703125 C 3.753906 -1.578125 4.039062 -1.515625 4.375 -1.515625 C 4.71875 -1.515625 5.007812 -1.578125 5.25 -1.703125 C 5.488281 -1.828125 5.691406 -2 5.859375 -2.21875 C 6.015625 -2.414062 6.144531 -2.644531 6.25 -2.90625 C 6.34375 -3.15625 6.414062 -3.40625 6.46875 -3.65625 C 6.507812 -3.90625 6.539062 -4.140625 6.5625 -4.359375 C 6.570312 -4.578125 6.578125 -4.753906 6.578125 -4.890625 C 6.578125 -5.015625 6.570312 -5.191406 6.5625 -5.421875 C 6.539062 -5.628906 6.507812 -5.863281 6.46875 -6.125 C 6.414062 -6.375 6.34375 -6.628906 6.25 -6.890625 C 6.144531 -7.140625 6.015625 -7.367188 5.859375 -7.578125 C 5.691406 -7.785156 5.488281 -7.957031 5.25 -8.09375 C 5.007812 -8.207031 4.71875 -8.265625 4.375 -8.265625 Z M 4.375 -8.265625 "/></g></g></g><g fill="#000000" fill-opacity="1"><g transform="translate(115.819608, 137.054483)"><g><path d="M 6.5 -9.78125 C 6.601562 -9.78125 6.695312 -9.742188 6.78125 -9.671875 C 6.851562 -9.585938 6.890625 -9.492188 6.890625 -9.390625 L 6.890625 -0.390625 C 6.890625 -0.285156 6.851562 -0.195312 6.78125 -0.125 C 6.695312 -0.0390625 6.601562 0 6.5 0 L 5.46875 0 C 5.3125 0 5.195312 -0.078125 5.125 -0.234375 L 2.453125 -5.9375 C 2.429688 -6.007812 2.378906 -6.035156 2.296875 -6.015625 C 2.210938 -5.992188 2.171875 -5.945312 2.171875 -5.875 L 2.171875 -0.390625 C 2.171875 -0.285156 2.132812 -0.195312 2.0625 -0.125 C 1.988281 -0.0390625 1.894531 0 1.78125 0 L 1.046875 0 C 0.941406 0 0.851562 -0.0390625 0.78125 -0.125 C 0.707031 -0.195312 0.671875 -0.285156 0.671875 -0.390625 L 0.671875 -9.390625 C 0.671875 -9.492188 0.707031 -9.585938 0.78125 -9.671875 C 0.851562 -9.742188 0.941406 -9.78125 1.046875 -9.78125 L 2.078125 -9.78125 C 2.242188 -9.78125 2.359375 -9.703125 2.421875 -9.546875 L 5.09375 -3.84375 C 5.125 -3.769531 5.179688 -3.742188 5.265625 -3.765625 C 5.335938 -3.785156 5.375 -3.832031 5.375 -3.90625 L 5.375 -9.390625 C 5.375 -9.492188 5.414062 -9.585938 5.5 -9.671875 C 5.582031 -9.742188 5.675781 -9.78125 5.78125 -9.78125 Z M 6.5 -9.78125 "/></g></g></g><g fill="#000000" fill-opacity="1"><g transform="translate(128.660677, 137.054483)"><g><path d="M 7.984375 -8.265625 C 8.296875 -7.835938 8.539062 -7.335938 8.71875 -6.765625 C 8.882812 -6.191406 8.96875 -5.566406 8.96875 -4.890625 C 8.96875 -4.210938 8.882812 -3.585938 8.71875 -3.015625 C 8.539062 -2.441406 8.296875 -1.941406 7.984375 -1.515625 C 7.722656 -1.160156 7.398438 -0.859375 7.015625 -0.609375 C 6.941406 -0.566406 6.894531 -0.5 6.875 -0.40625 C 6.832031 -0.320312 6.832031 -0.234375 6.875 -0.140625 L 7.078125 0.40625 C 7.117188 0.507812 7.117188 0.609375 7.078125 0.703125 C 7.015625 0.804688 6.9375 0.875 6.84375 0.90625 L 6.171875 1.15625 C 6.066406 1.195312 5.96875 1.191406 5.875 1.140625 C 5.769531 1.097656 5.695312 1.023438 5.65625 0.921875 L 5.421875 0.25 C 5.347656 0.0703125 5.21875 -0.015625 5.03125 -0.015625 C 5 -0.00390625 4.960938 0 4.921875 0 L 4.8125 0 C 4.144531 0 3.546875 -0.128906 3.015625 -0.390625 C 2.472656 -0.640625 2.015625 -1.015625 1.640625 -1.515625 C 1.316406 -1.941406 1.078125 -2.441406 0.921875 -3.015625 C 0.753906 -3.585938 0.671875 -4.210938 0.671875 -4.890625 C 0.671875 -6.265625 0.992188 -7.390625 1.640625 -8.265625 C 2.398438 -9.273438 3.457031 -9.78125 4.8125 -9.78125 C 5.476562 -9.78125 6.082031 -9.65625 6.625 -9.40625 C 7.15625 -9.144531 7.609375 -8.765625 7.984375 -8.265625 Z M 6.03125 -2.421875 C 6.082031 -2.285156 6.179688 -2.203125 6.328125 -2.171875 C 6.460938 -2.148438 6.582031 -2.191406 6.6875 -2.296875 C 6.90625 -2.554688 7.09375 -2.894531 7.25 -3.3125 C 7.382812 -3.71875 7.453125 -4.242188 7.453125 -4.890625 C 7.453125 -5.648438 7.359375 -6.257812 7.171875 -6.71875 C 6.960938 -7.15625 6.71875 -7.488281 6.4375 -7.71875 C 6.15625 -7.957031 5.863281 -8.113281 5.5625 -8.1875 C 5.257812 -8.238281 5.007812 -8.265625 4.8125 -8.265625 C 4.613281 -8.265625 4.363281 -8.238281 4.0625 -8.1875 C 3.757812 -8.113281 3.472656 -7.957031 3.203125 -7.71875 C 2.921875 -7.488281 2.679688 -7.15625 2.484375 -6.71875 C 2.273438 -6.257812 2.171875 -5.648438 2.171875 -4.890625 C 2.171875 -4.316406 2.226562 -3.832031 2.34375 -3.4375 C 2.457031 -3.050781 2.609375 -2.734375 2.796875 -2.484375 C 2.984375 -2.222656 3.191406 -2.023438 3.421875 -1.890625 C 3.640625 -1.753906 3.851562 -1.65625 4.0625 -1.59375 C 4.144531 -1.582031 4.222656 -1.585938 4.296875 -1.609375 C 4.359375 -1.628906 4.414062 -1.664062 4.46875 -1.71875 C 4.507812 -1.757812 4.539062 -1.816406 4.5625 -1.890625 C 4.570312 -1.960938 4.5625 -2.039062 4.53125 -2.125 L 4.484375 -2.28125 C 4.441406 -2.375 4.445312 -2.472656 4.5 -2.578125 C 4.539062 -2.671875 4.609375 -2.738281 4.703125 -2.78125 L 5.390625 -3.03125 C 5.484375 -3.070312 5.582031 -3.070312 5.6875 -3.03125 C 5.78125 -2.976562 5.847656 -2.898438 5.890625 -2.796875 Z M 6.03125 -2.421875 "/></g></g></g><g fill="#000000" fill-opacity="1"><g transform="translate(143.583739, 137.054483)"><g><path d="M 5.96875 -9.78125 C 6.070312 -9.78125 6.164062 -9.742188 6.25 -9.671875 C 6.320312 -9.585938 6.359375 -9.492188 6.359375 -9.390625 L 6.359375 -2.84375 C 6.359375 -2.445312 6.285156 -2.078125 6.140625 -1.734375 C 5.984375 -1.390625 5.78125 -1.085938 5.53125 -0.828125 C 5.269531 -0.566406 4.960938 -0.367188 4.609375 -0.234375 C 4.265625 -0.078125 3.898438 0 3.515625 0 C 3.117188 0 2.753906 -0.078125 2.421875 -0.234375 C 2.066406 -0.378906 1.765625 -0.582031 1.515625 -0.84375 C 1.253906 -1.101562 1.046875 -1.40625 0.890625 -1.75 C 0.742188 -2.082031 0.671875 -2.445312 0.671875 -2.84375 L 0.671875 -9.390625 C 0.671875 -9.492188 0.707031 -9.585938 0.78125 -9.671875 C 0.851562 -9.742188 0.941406 -9.78125 1.046875 -9.78125 L 1.78125 -9.78125 C 1.894531 -9.78125 1.988281 -9.742188 2.0625 -9.671875 C 2.132812 -9.585938 2.171875 -9.492188 2.171875 -9.390625 L 2.171875 -2.875 C 2.171875 -2.695312 2.207031 -2.519531 2.28125 -2.34375 C 2.351562 -2.175781 2.453125 -2.03125 2.578125 -1.90625 C 2.703125 -1.78125 2.847656 -1.679688 3.015625 -1.609375 C 3.179688 -1.546875 3.359375 -1.515625 3.546875 -1.515625 C 3.910156 -1.515625 4.21875 -1.632812 4.46875 -1.875 C 4.71875 -2.125 4.84375 -2.429688 4.84375 -2.796875 L 4.84375 -9.390625 C 4.84375 -9.492188 4.882812 -9.585938 4.96875 -9.671875 C 5.039062 -9.742188 5.132812 -9.78125 5.25 -9.78125 Z M 5.96875 -9.78125 "/></g></g></g><g fill="#000000" fill-opacity="1"><g transform="translate(155.890959, 137.054483)"><g><path d="M 1.78125 -9.78125 C 1.894531 -9.78125 1.988281 -9.742188 2.0625 -9.671875 C 2.132812 -9.585938 2.171875 -9.492188 2.171875 -9.390625 L 2.171875 -0.390625 C 2.171875 -0.285156 2.132812 -0.195312 2.0625 -0.125 C 1.988281 -0.0390625 1.894531 0 1.78125 0 L 1.046875 0 C 0.941406 0 0.851562 -0.0390625 0.78125 -0.125 C 0.707031 -0.195312 0.671875 -0.285156 0.671875 -0.390625 L 0.671875 -9.390625 C 0.671875 -9.492188 0.707031 -9.585938 0.78125 -9.671875 C 0.851562 -9.742188 0.941406 -9.78125 1.046875 -9.78125 Z M 1.78125 -9.78125 "/></g></g></g><g fill="#000000" fill-opacity="1"><g transform="translate(164.020844, 137.054483)"><g><path d="M 3.0625 -9.78125 C 3.832031 -9.78125 4.410156 -9.570312 4.796875 -9.15625 C 5.191406 -8.738281 5.390625 -8.144531 5.390625 -7.375 C 5.390625 -7.289062 5.363281 -7.222656 5.3125 -7.171875 C 5.25 -7.109375 5.171875 -7.078125 5.078125 -7.078125 L 4.1875 -7.078125 C 4.101562 -7.078125 4.03125 -7.109375 3.96875 -7.171875 C 3.914062 -7.222656 3.890625 -7.289062 3.890625 -7.375 L 3.890625 -7.46875 C 3.890625 -7.8125 3.820312 -8.054688 3.6875 -8.203125 C 3.550781 -8.347656 3.351562 -8.421875 3.09375 -8.421875 C 2.832031 -8.421875 2.640625 -8.347656 2.515625 -8.203125 C 2.367188 -8.054688 2.296875 -7.8125 2.296875 -7.46875 C 2.296875 -7.289062 2.316406 -7.128906 2.359375 -6.984375 C 2.398438 -6.816406 2.476562 -6.65625 2.59375 -6.5 C 2.695312 -6.34375 2.835938 -6.171875 3.015625 -5.984375 C 3.179688 -5.804688 3.394531 -5.609375 3.65625 -5.390625 C 3.988281 -5.117188 4.269531 -4.859375 4.5 -4.609375 C 4.71875 -4.367188 4.894531 -4.128906 5.03125 -3.890625 C 5.164062 -3.648438 5.265625 -3.410156 5.328125 -3.171875 C 5.378906 -2.929688 5.40625 -2.675781 5.40625 -2.40625 C 5.40625 -1.625 5.207031 -1.03125 4.8125 -0.625 C 4.414062 -0.207031 3.828125 0 3.046875 0 C 2.265625 0 1.671875 -0.207031 1.265625 -0.625 C 0.867188 -1.03125 0.671875 -1.625 0.671875 -2.40625 L 0.671875 -2.703125 C 0.671875 -2.773438 0.703125 -2.84375 0.765625 -2.90625 C 0.816406 -2.957031 0.878906 -2.984375 0.953125 -2.984375 L 1.875 -2.984375 C 1.945312 -2.984375 2.015625 -2.957031 2.078125 -2.90625 C 2.140625 -2.84375 2.171875 -2.773438 2.171875 -2.703125 L 2.171875 -2.3125 C 2.171875 -1.96875 2.242188 -1.726562 2.390625 -1.59375 C 2.535156 -1.445312 2.734375 -1.375 2.984375 -1.375 C 3.242188 -1.375 3.453125 -1.445312 3.609375 -1.59375 C 3.742188 -1.726562 3.8125 -1.96875 3.8125 -2.3125 C 3.8125 -2.476562 3.789062 -2.640625 3.75 -2.796875 C 3.707031 -2.960938 3.628906 -3.125 3.515625 -3.28125 C 3.410156 -3.4375 3.273438 -3.609375 3.109375 -3.796875 C 2.929688 -3.972656 2.710938 -4.171875 2.453125 -4.390625 C 2.128906 -4.660156 1.851562 -4.914062 1.625 -5.15625 C 1.40625 -5.40625 1.226562 -5.648438 1.09375 -5.890625 C 0.945312 -6.128906 0.847656 -6.367188 0.796875 -6.609375 C 0.734375 -6.847656 0.703125 -7.101562 0.703125 -7.375 C 0.703125 -8.144531 0.898438 -8.738281 1.296875 -9.15625 C 1.679688 -9.570312 2.269531 -9.78125 3.0625 -9.78125 Z M 3.0625 -9.78125 "/></g></g></g><g fill="#000000" fill-opacity="1"><g transform="translate(175.380493, 137.054483)"><g><path d="M 6.171875 -8.65625 C 6.171875 -8.550781 6.140625 -8.460938 6.078125 -8.390625 C 5.992188 -8.304688 5.894531 -8.265625 5.78125 -8.265625 L 4.5625 -8.265625 C 4.457031 -8.265625 4.367188 -8.234375 4.296875 -8.171875 C 4.210938 -8.085938 4.171875 -7.992188 4.171875 -7.890625 L 4.171875 -0.390625 C 4.171875 -0.285156 4.132812 -0.195312 4.0625 -0.125 C 3.988281 -0.0390625 3.894531 0 3.78125 0 L 3.0625 0 C 2.945312 0 2.851562 -0.0390625 2.78125 -0.125 C 2.707031 -0.195312 2.671875 -0.285156 2.671875 -0.390625 L 2.671875 -7.890625 C 2.671875 -7.992188 2.632812 -8.085938 2.5625 -8.171875 C 2.476562 -8.234375 2.382812 -8.265625 2.28125 -8.265625 L 1.046875 -8.265625 C 0.941406 -8.265625 0.851562 -8.304688 0.78125 -8.390625 C 0.707031 -8.460938 0.671875 -8.550781 0.671875 -8.65625 L 0.671875 -9.390625 C 0.671875 -9.492188 0.707031 -9.585938 0.78125 -9.671875 C 0.851562 -9.742188 0.941406 -9.78125 1.046875 -9.78125 L 5.78125 -9.78125 C 5.894531 -9.78125 5.992188 -9.742188 6.078125 -9.671875 C 6.140625 -9.585938 6.171875 -9.492188 6.171875 -9.390625 Z M 6.171875 -8.65625 "/></g></g></g><g fill="#000000" fill-opacity="1"><g transform="translate(187.514214, 137.054483)"><g><path d="M 6.09375 0 C 5.90625 0 5.78125 -0.0976562 5.71875 -0.296875 C 5.695312 -0.390625 5.664062 -0.53125 5.625 -0.71875 C 5.5625 -0.894531 5.492188 -1.140625 5.421875 -1.453125 C 5.359375 -1.648438 5.226562 -1.75 5.03125 -1.75 L 2.890625 -1.75 C 2.703125 -1.75 2.578125 -1.648438 2.515625 -1.453125 C 2.453125 -1.210938 2.394531 -0.992188 2.34375 -0.796875 C 2.289062 -0.597656 2.242188 -0.429688 2.203125 -0.296875 C 2.140625 -0.0976562 2.015625 0 1.828125 0 L 1.0625 0 C 0.9375 0 0.835938 -0.0507812 0.765625 -0.15625 C 0.679688 -0.257812 0.65625 -0.375 0.6875 -0.5 C 0.78125 -0.820312 0.894531 -1.238281 1.03125 -1.75 C 1.164062 -2.25 1.3125 -2.789062 1.46875 -3.375 C 1.625 -3.957031 1.789062 -4.554688 1.96875 -5.171875 C 2.125 -5.785156 2.273438 -6.375 2.421875 -6.9375 C 2.566406 -7.488281 2.703125 -7.992188 2.828125 -8.453125 C 2.941406 -8.890625 3.035156 -9.234375 3.109375 -9.484375 C 3.128906 -9.578125 3.175781 -9.648438 3.25 -9.703125 C 3.3125 -9.753906 3.390625 -9.78125 3.484375 -9.78125 L 4.4375 -9.78125 C 4.53125 -9.78125 4.613281 -9.753906 4.6875 -9.703125 C 4.757812 -9.648438 4.800781 -9.578125 4.8125 -9.484375 C 5.125 -8.304688 5.394531 -7.300781 5.625 -6.46875 C 5.851562 -5.632812 6.039062 -4.929688 6.1875 -4.359375 C 6.34375 -3.796875 6.46875 -3.335938 6.5625 -2.984375 C 6.65625 -2.640625 6.734375 -2.363281 6.796875 -2.15625 C 6.847656 -1.945312 6.890625 -1.789062 6.921875 -1.6875 C 6.953125 -1.570312 6.976562 -1.460938 7 -1.359375 C 7.03125 -1.265625 7.0625 -1.15625 7.09375 -1.03125 C 7.125 -0.90625 7.171875 -0.726562 7.234375 -0.5 C 7.265625 -0.375 7.242188 -0.257812 7.171875 -0.15625 C 7.085938 -0.0507812 6.984375 0 6.859375 0 Z M 3.125 -3.75 C 3.082031 -3.625 3.101562 -3.515625 3.1875 -3.421875 C 3.269531 -3.304688 3.375 -3.25 3.5 -3.25 L 4.4375 -3.25 C 4.550781 -3.25 4.648438 -3.304688 4.734375 -3.421875 C 4.816406 -3.515625 4.835938 -3.625 4.796875 -3.75 C 4.734375 -4 4.664062 -4.265625 4.59375 -4.546875 C 4.507812 -4.835938 4.425781 -5.140625 4.34375 -5.453125 C 4.3125 -5.554688 4.257812 -5.632812 4.1875 -5.6875 C 4.113281 -5.726562 4.039062 -5.75 3.96875 -5.75 C 3.882812 -5.75 3.804688 -5.726562 3.734375 -5.6875 C 3.660156 -5.632812 3.613281 -5.554688 3.59375 -5.453125 C 3.507812 -5.171875 3.429688 -4.890625 3.359375 -4.609375 C 3.285156 -4.316406 3.207031 -4.03125 3.125 -3.75 Z M 3.125 -3.75 "/></g></g></g><g clip-path="url(#a1618e1d6b)"><g clip-path="url(#20e0765fb6)"><g clip-path="url(#edebfc8883)"><path fill="#ec0c8c" d="M 24.109375 116.011719 C 18.226562 119.09375 11.570312 119.699219 5.53125 114.683594 C 4.816406 114.089844 4.144531 113.414062 3.742188 112.574219 C 3.253906 111.558594 3.207031 110.378906 3.351562 109.257812 C 3.738281 106.332031 5.457031 103.609375 7.929688 102 C 10.40625 100.390625 13.59375 99.925781 16.421875 100.761719 C 24.0625 103.011719 29.136719 105.519531 37.367188 102.386719 C 37.027344 104.164062 35.925781 105.691406 34.769531 107.085938 C 31.894531 110.550781 28.1875 113.875 24.109375 116.011719 Z M 24.109375 116.011719 " fill-opacity="1" fill-rule="nonzero"/></g></g></g><g clip-path="url(#18435d1880)"><g clip-path="url(#e0f76d02a9)"><g clip-path="url(#1ff908d43a)"><path fill="#00aeef" d="M 36.4375 121.792969 C 34.917969 126.007812 31.890625 129.347656 26.597656 129.609375 C 25.972656 129.640625 25.328125 129.613281 24.746094 129.378906 C 24.039062 129.097656 23.476562 128.53125 23.039062 127.90625 C 21.898438 126.277344 21.507812 124.140625 22.003906 122.210938 C 22.5 120.28125 23.871094 118.597656 25.65625 117.71875 C 30.480469 115.351562 34.148438 114.285156 36.808594 108.96875 C 37.453125 110.007812 37.601562 111.269531 37.664062 112.488281 C 37.816406 115.523438 37.488281 118.867188 36.4375 121.792969 Z M 36.4375 121.792969 " fill-opacity="1" fill-rule="nonzero"/></g></g></g><g clip-path="url(#262a25fe03)"><g clip-path="url(#72d2072574)"><g clip-path="url(#bf3687b08a)"><path fill="#fff202" d="M 24.589844 100.351562 C 20.359375 98.878906 16.988281 95.886719 16.667969 90.597656 C 16.628906 89.972656 16.652344 89.328125 16.878906 88.742188 C 17.152344 88.03125 17.710938 87.464844 18.328125 87.019531 C 19.949219 85.859375 22.082031 85.445312 24.015625 85.921875 C 25.949219 86.394531 27.648438 87.75 28.546875 89.527344 C 30.964844 94.324219 32.074219 97.980469 37.414062 100.582031 C 36.382812 101.238281 35.125 101.398438 33.90625 101.472656 C 30.875 101.660156 27.523438 101.371094 24.589844 100.351562 Z M 24.589844 100.351562 " fill-opacity="1" fill-rule="nonzero"/></g></g></g></svg>