<svg xmlns="http://www.w3.org/2000/svg" xmlns:xlink="http://www.w3.org/1999/xlink" width="300" zoomAndPan="magnify" viewBox="0 0 224.87999 225" height="300" preserveAspectRatio="xMidYMid meet" version="1.0"><defs><g/><clipPath id="946bc584f8"><path d="M 98 48 L 129 48 L 129 106 L 98 106 Z M 98 48 " clip-rule="nonzero"/></clipPath><clipPath id="71a61fb2e5"><path d="M 147.015625 82.117188 L 115.636719 106.480469 L 85.753906 67.996094 L 117.132812 43.632812 Z M 147.015625 82.117188 " clip-rule="nonzero"/></clipPath><clipPath id="a3c17806e8"><path d="M 115.515625 106.574219 L 146.894531 82.210938 L 117.011719 43.722656 L 85.632812 68.089844 Z M 115.515625 106.574219 " clip-rule="nonzero"/></clipPath><clipPath id="e8f07f4911"><path d="M 76 73 L 107 73 L 107 103 L 76 103 Z M 76 73 " clip-rule="nonzero"/></clipPath><clipPath id="727b333887"><path d="M 111.015625 77.132812 L 106.507812 103.742188 L 73.988281 98.234375 L 78.496094 71.625 Z M 111.015625 77.132812 " clip-rule="nonzero"/></clipPath><clipPath id="cd45026a6e"><path d="M 106.519531 103.671875 L 111.027344 77.066406 L 78.507812 71.554688 L 74 98.164062 Z M 106.519531 103.671875 " clip-rule="nonzero"/></clipPath><clipPath id="7ef661b038"><path d="M 119 76 L 149 76 L 149 107 L 119 107 Z M 119 76 " clip-rule="nonzero"/></clipPath><clipPath id="2e4b43c168"><path d="M 145.1875 110.070312 L 118.53125 105.855469 L 123.6875 73.277344 L 150.339844 77.496094 Z M 145.1875 110.070312 " clip-rule="nonzero"/></clipPath><clipPath id="3865c7bba6"><path d="M 118.601562 105.863281 L 145.253906 110.082031 L 150.410156 77.503906 L 123.757812 73.289062 Z M 118.601562 105.863281 " clip-rule="nonzero"/></clipPath></defs><g fill="#000000" fill-opacity="1"><g transform="translate(2.512406, 147.028336)"><g><path d="M 14.921875 -23.546875 C 14.921875 -23.703125 15.039062 -23.84375 15.28125 -23.96875 C 15.519531 -24.09375 15.78125 -24.28125 16.0625 -24.53125 C 16.34375 -24.78125 16.597656 -25.109375 16.828125 -25.515625 C 17.066406 -25.929688 17.1875 -26.5 17.1875 -27.21875 C 17.1875 -27.625 17.113281 -28.046875 16.96875 -28.484375 C 16.832031 -28.929688 16.609375 -29.34375 16.296875 -29.71875 C 15.984375 -30.09375 15.566406 -30.394531 15.046875 -30.625 C 14.523438 -30.863281 13.890625 -30.984375 13.140625 -30.984375 C 11.878906 -30.984375 10.875 -30.59375 10.125 -29.8125 C 9.375 -29.03125 9 -27.851562 9 -26.28125 C 9 -25.332031 9.296875 -24.46875 9.890625 -23.6875 C 10.484375 -22.90625 11.25 -22.175781 12.1875 -21.5 C 13.132812 -20.820312 14.179688 -20.15625 15.328125 -19.5 C 16.472656 -18.84375 17.59375 -18.148438 18.6875 -17.421875 C 19.789062 -16.703125 20.796875 -15.925781 21.703125 -15.09375 C 22.617188 -14.257812 23.296875 -13.3125 23.734375 -12.25 C 24.390625 -10.738281 24.628906 -9.226562 24.453125 -7.71875 C 24.285156 -6.21875 23.722656 -4.863281 22.765625 -3.65625 C 21.804688 -2.445312 20.460938 -1.472656 18.734375 -0.734375 C 17.015625 0.00390625 14.914062 0.375 12.4375 0.375 C 10.582031 0.375 8.929688 0.171875 7.484375 -0.234375 C 6.046875 -0.640625 4.820312 -1.203125 3.8125 -1.921875 C 2.8125 -2.648438 2.039062 -3.5 1.5 -4.46875 C 0.96875 -5.445312 0.703125 -6.5 0.703125 -7.625 C 0.703125 -8.570312 0.847656 -9.410156 1.140625 -10.140625 C 1.441406 -10.878906 1.851562 -11.5 2.375 -12 C 2.894531 -12.507812 3.5 -12.894531 4.1875 -13.15625 C 4.882812 -13.425781 5.625 -13.5625 6.40625 -13.5625 C 6.84375 -13.5625 7.265625 -13.488281 7.671875 -13.34375 C 8.078125 -13.207031 8.445312 -13.046875 8.78125 -12.859375 C 9.113281 -12.671875 9.378906 -12.46875 9.578125 -12.25 C 9.785156 -12.03125 9.890625 -11.835938 9.890625 -11.671875 C 9.890625 -11.453125 9.753906 -11.238281 9.484375 -11.03125 C 9.222656 -10.832031 8.925781 -10.566406 8.59375 -10.234375 C 8.257812 -9.910156 7.957031 -9.460938 7.6875 -8.890625 C 7.425781 -8.328125 7.296875 -7.5625 7.296875 -6.59375 C 7.296875 -5.8125 7.425781 -5.117188 7.6875 -4.515625 C 7.957031 -3.921875 8.328125 -3.425781 8.796875 -3.03125 C 9.273438 -2.644531 9.828125 -2.359375 10.453125 -2.171875 C 11.078125 -1.984375 11.738281 -1.890625 12.4375 -1.890625 C 13.4375 -1.890625 14.273438 -2.03125 14.953125 -2.3125 C 15.628906 -2.59375 16.160156 -2.96875 16.546875 -3.4375 C 16.941406 -3.90625 17.222656 -4.453125 17.390625 -5.078125 C 17.566406 -5.710938 17.65625 -6.359375 17.65625 -7.015625 C 17.65625 -7.992188 17.300781 -8.875 16.59375 -9.65625 C 15.894531 -10.4375 15.007812 -11.203125 13.9375 -11.953125 C 12.875 -12.710938 11.695312 -13.46875 10.40625 -14.21875 C 9.125 -14.976562 7.898438 -15.785156 6.734375 -16.640625 C 5.566406 -17.503906 4.546875 -18.453125 3.671875 -19.484375 C 2.796875 -20.523438 2.234375 -21.707031 1.984375 -23.03125 C 1.691406 -24.40625 1.773438 -25.722656 2.234375 -26.984375 C 2.691406 -28.242188 3.421875 -29.34375 4.421875 -30.28125 C 5.429688 -31.21875 6.6875 -31.960938 8.1875 -32.515625 C 9.695312 -33.066406 11.363281 -33.34375 13.1875 -33.34375 C 14.695312 -33.34375 16.085938 -33.171875 17.359375 -32.828125 C 18.628906 -32.484375 19.71875 -31.992188 20.625 -31.359375 C 21.539062 -30.734375 22.25 -29.957031 22.75 -29.03125 C 23.25 -28.101562 23.5 -27.046875 23.5 -25.859375 C 23.5 -25.128906 23.363281 -24.488281 23.09375 -23.9375 C 22.832031 -23.394531 22.472656 -22.941406 22.015625 -22.578125 C 21.554688 -22.222656 21.046875 -21.945312 20.484375 -21.75 C 19.921875 -21.5625 19.34375 -21.46875 18.75 -21.46875 C 17.519531 -21.46875 16.570312 -21.71875 15.90625 -22.21875 C 15.25 -22.726562 14.921875 -23.171875 14.921875 -23.546875 Z M 14.921875 -23.546875 "/></g></g></g><g fill="#000000" fill-opacity="1"><g transform="translate(27.702936, 147.028336)"><g><path d="M 0.9375 -22.46875 C 1.3125 -22.46875 1.828125 -22.484375 2.484375 -22.515625 C 3.148438 -22.546875 3.859375 -22.609375 4.609375 -22.703125 C 5.367188 -22.796875 6.144531 -22.941406 6.9375 -23.140625 C 7.738281 -23.347656 8.488281 -23.640625 9.1875 -24.015625 L 9.65625 -24.015625 L 9.65625 -7.25 C 9.65625 -6.0625 9.863281 -5.191406 10.28125 -4.640625 C 10.707031 -4.085938 11.269531 -3.8125 11.96875 -3.8125 C 12.5 -3.8125 13.003906 -3.96875 13.484375 -4.28125 C 13.972656 -4.59375 14.390625 -4.941406 14.734375 -5.328125 C 15.148438 -5.765625 15.546875 -6.265625 15.921875 -6.828125 L 15.921875 -19.96875 C 15.921875 -20.4375 15.757812 -20.890625 15.4375 -21.328125 C 15.125 -21.773438 14.734375 -22 14.265625 -22 L 14.265625 -22.46875 C 14.640625 -22.46875 15.15625 -22.484375 15.8125 -22.515625 C 16.476562 -22.546875 17.1875 -22.609375 17.9375 -22.703125 C 18.695312 -22.796875 19.472656 -22.941406 20.265625 -23.140625 C 21.066406 -23.347656 21.816406 -23.640625 22.515625 -24.015625 L 22.984375 -24.015625 L 22.984375 -3.578125 C 22.984375 -3.109375 23.140625 -2.648438 23.453125 -2.203125 C 23.765625 -1.765625 24.15625 -1.546875 24.625 -1.546875 L 24.625 -1.078125 C 24.25 -1.078125 23.734375 -1.0625 23.078125 -1.03125 C 22.421875 -1 21.710938 -0.9375 20.953125 -0.84375 C 20.203125 -0.75 19.425781 -0.597656 18.625 -0.390625 C 17.820312 -0.191406 17.078125 0.09375 16.390625 0.46875 L 15.921875 0.46875 L 15.921875 -2.78125 C 15.191406 -2.019531 14.253906 -1.300781 13.109375 -0.625 C 11.960938 0.0390625 10.609375 0.375 9.046875 0.375 C 7.097656 0.375 5.535156 -0.21875 4.359375 -1.40625 C 3.179688 -2.601562 2.59375 -4.488281 2.59375 -7.0625 L 2.59375 -19.96875 C 2.59375 -20.4375 2.429688 -20.890625 2.109375 -21.328125 C 1.796875 -21.773438 1.40625 -22 0.9375 -22 Z M 0.9375 -22.46875 "/></g></g></g><g fill="#000000" fill-opacity="1"><g transform="translate(53.270153, 147.028336)"><g><path d="M 9.65625 -22.09375 C 10.25 -22.65625 10.9375 -23.097656 11.71875 -23.421875 C 12.507812 -23.753906 13.40625 -23.921875 14.40625 -23.921875 C 15.789062 -23.921875 17.078125 -23.628906 18.265625 -23.046875 C 19.460938 -22.472656 20.507812 -21.648438 21.40625 -20.578125 C 22.300781 -19.515625 23.003906 -18.226562 23.515625 -16.71875 C 24.035156 -15.207031 24.296875 -13.507812 24.296875 -11.625 C 24.296875 -9.78125 24.035156 -8.109375 23.515625 -6.609375 C 23.003906 -5.117188 22.300781 -3.851562 21.40625 -2.8125 C 20.507812 -1.78125 19.460938 -0.988281 18.265625 -0.4375 C 17.078125 0.101562 15.789062 0.375 14.40625 0.375 C 13.4375 0.375 12.617188 0.296875 11.953125 0.140625 C 11.296875 -0.015625 10.6875 -0.191406 10.125 -0.390625 C 9.5625 -0.597656 9.007812 -0.78125 8.46875 -0.9375 C 7.9375 -1.09375 7.328125 -1.171875 6.640625 -1.171875 C 6.171875 -1.171875 5.722656 -1.09375 5.296875 -0.9375 C 4.867188 -0.78125 4.484375 -0.609375 4.140625 -0.421875 C 3.734375 -0.171875 3.375 0.09375 3.0625 0.375 L 2.59375 0.375 L 2.59375 -31.03125 C 2.59375 -31.5 2.429688 -31.953125 2.109375 -32.390625 C 1.796875 -32.835938 1.40625 -33.0625 0.9375 -33.0625 L 0.9375 -33.53125 C 1.3125 -33.53125 1.828125 -33.546875 2.484375 -33.578125 C 3.148438 -33.609375 3.859375 -33.671875 4.609375 -33.765625 C 5.367188 -33.859375 6.144531 -34.003906 6.9375 -34.203125 C 7.738281 -34.410156 8.488281 -34.703125 9.1875 -35.078125 L 9.65625 -35.078125 Z M 13 -2.125 C 13.375 -2.125 13.796875 -2.269531 14.265625 -2.5625 C 14.734375 -2.863281 15.164062 -3.375 15.5625 -4.09375 C 15.957031 -4.820312 16.296875 -5.796875 16.578125 -7.015625 C 16.859375 -8.242188 17 -9.78125 17 -11.625 C 17 -13.507812 16.859375 -15.078125 16.578125 -16.328125 C 16.296875 -17.585938 15.957031 -18.59375 15.5625 -19.34375 C 15.164062 -20.101562 14.734375 -20.640625 14.265625 -20.953125 C 13.796875 -21.265625 13.375 -21.421875 13 -21.421875 C 12.6875 -21.421875 12.335938 -21.265625 11.953125 -20.953125 C 11.578125 -20.640625 11.21875 -20.101562 10.875 -19.34375 C 10.53125 -18.59375 10.238281 -17.585938 10 -16.328125 C 9.769531 -15.078125 9.65625 -13.507812 9.65625 -11.625 C 9.65625 -9.75 9.75 -8.195312 9.9375 -6.96875 C 10.125 -5.75 10.363281 -4.773438 10.65625 -4.046875 C 10.957031 -3.328125 11.3125 -2.828125 11.71875 -2.546875 C 12.132812 -2.265625 12.5625 -2.125 13 -2.125 Z M 13 -2.125 "/></g></g></g><g fill="#000000" fill-opacity="1"><g transform="translate(78.272348, 147.028336)"><g><path d="M 1.171875 0 L 1.171875 -0.46875 C 1.648438 -0.46875 2.046875 -0.671875 2.359375 -1.078125 C 2.671875 -1.492188 2.828125 -1.9375 2.828125 -2.40625 L 2.828125 -31.03125 C 2.828125 -31.5 2.671875 -31.953125 2.359375 -32.390625 C 2.046875 -32.835938 1.648438 -33.0625 1.171875 -33.0625 L 1.171875 -33.53125 C 1.554688 -33.53125 2.078125 -33.546875 2.734375 -33.578125 C 3.390625 -33.609375 4.09375 -33.671875 4.84375 -33.765625 C 5.601562 -33.859375 6.378906 -34.003906 7.171875 -34.203125 C 7.972656 -34.410156 8.722656 -34.703125 9.421875 -35.078125 L 9.890625 -35.078125 L 9.890625 -2.40625 C 9.890625 -1.9375 10.046875 -1.492188 10.359375 -1.078125 C 10.671875 -0.671875 11.0625 -0.46875 11.53125 -0.46875 L 11.53125 0 Z M 1.171875 0 "/></g></g></g><g fill="#000000" fill-opacity="1"><g transform="translate(90.749899, 147.028336)"><g><path d="M 1.171875 -0.46875 C 1.648438 -0.46875 2.046875 -0.671875 2.359375 -1.078125 C 2.671875 -1.492188 2.828125 -1.9375 2.828125 -2.40625 L 2.828125 -19.96875 C 2.828125 -20.4375 2.671875 -20.890625 2.359375 -21.328125 C 2.046875 -21.773438 1.648438 -22 1.171875 -22 L 1.171875 -22.46875 C 1.554688 -22.46875 2.078125 -22.484375 2.734375 -22.515625 C 3.390625 -22.546875 4.09375 -22.609375 4.84375 -22.703125 C 5.601562 -22.796875 6.378906 -22.941406 7.171875 -23.140625 C 7.972656 -23.347656 8.722656 -23.640625 9.421875 -24.015625 L 9.890625 -24.015625 L 9.890625 -2.40625 C 9.890625 -1.9375 10.046875 -1.492188 10.359375 -1.078125 C 10.671875 -0.671875 11.0625 -0.46875 11.53125 -0.46875 L 11.53125 0 L 1.171875 0 Z M 1.890625 -29.671875 C 1.890625 -30.859375 2.253906 -31.820312 2.984375 -32.5625 C 3.722656 -33.300781 4.691406 -33.671875 5.890625 -33.671875 C 7.078125 -33.671875 8.039062 -33.300781 8.78125 -32.5625 C 9.519531 -31.820312 9.890625 -30.859375 9.890625 -29.671875 C 9.890625 -28.472656 9.519531 -27.503906 8.78125 -26.765625 C 8.039062 -26.035156 7.078125 -25.671875 5.890625 -25.671875 C 4.691406 -25.671875 3.722656 -26.035156 2.984375 -26.765625 C 2.253906 -27.503906 1.890625 -28.472656 1.890625 -29.671875 Z M 1.890625 -29.671875 "/></g></g></g><g fill="#000000" fill-opacity="1"><g transform="translate(103.227449, 147.028336)"><g><path d="M 1.171875 -22 L 1.171875 -22.46875 C 1.554688 -22.46875 2.078125 -22.484375 2.734375 -22.515625 C 3.390625 -22.546875 4.09375 -22.609375 4.84375 -22.703125 C 5.601562 -22.796875 6.378906 -22.941406 7.171875 -23.140625 C 7.972656 -23.347656 8.722656 -23.640625 9.421875 -24.015625 L 9.890625 -24.015625 L 9.890625 -20.765625 C 10.609375 -21.523438 11.539062 -22.238281 12.6875 -22.90625 C 13.832031 -23.582031 15.191406 -23.921875 16.765625 -23.921875 C 18.179688 -23.921875 19.40625 -23.625 20.4375 -23.03125 C 21.476562 -22.4375 22.234375 -21.476562 22.703125 -20.15625 C 23.046875 -20.5625 23.457031 -20.984375 23.9375 -21.421875 C 24.425781 -21.867188 24.976562 -22.28125 25.59375 -22.65625 C 26.207031 -23.03125 26.890625 -23.332031 27.640625 -23.5625 C 28.398438 -23.800781 29.21875 -23.921875 30.09375 -23.921875 C 32.039062 -23.921875 33.601562 -23.363281 34.78125 -22.25 C 35.957031 -21.132812 36.546875 -19.289062 36.546875 -16.71875 L 36.546875 -2.40625 C 36.546875 -1.9375 36.703125 -1.492188 37.015625 -1.078125 C 37.328125 -0.671875 37.71875 -0.46875 38.1875 -0.46875 L 38.1875 0 L 27.828125 0 L 27.828125 -0.46875 C 28.296875 -0.46875 28.6875 -0.671875 29 -1.078125 C 29.320312 -1.492188 29.484375 -1.9375 29.484375 -2.40625 L 29.484375 -16.765625 C 29.484375 -17.960938 29.269531 -18.753906 28.84375 -19.140625 C 28.414062 -19.535156 27.859375 -19.734375 27.171875 -19.734375 C 26.640625 -19.734375 26.132812 -19.578125 25.65625 -19.265625 C 25.1875 -18.953125 24.765625 -18.601562 24.390625 -18.21875 C 23.984375 -17.78125 23.59375 -17.28125 23.21875 -16.71875 L 23.21875 -2.40625 C 23.21875 -1.9375 23.375 -1.492188 23.6875 -1.078125 C 24 -0.671875 24.390625 -0.46875 24.859375 -0.46875 L 24.859375 0 L 14.5 0 L 14.5 -0.46875 C 14.976562 -0.46875 15.375 -0.671875 15.6875 -1.078125 C 16 -1.492188 16.15625 -1.9375 16.15625 -2.40625 L 16.15625 -16.765625 C 16.15625 -17.960938 15.941406 -18.753906 15.515625 -19.140625 C 15.085938 -19.535156 14.53125 -19.734375 13.84375 -19.734375 C 13.3125 -19.734375 12.804688 -19.578125 12.328125 -19.265625 C 11.859375 -18.953125 11.4375 -18.601562 11.0625 -18.21875 C 10.65625 -17.78125 10.265625 -17.28125 9.890625 -16.71875 L 9.890625 -2.40625 C 9.890625 -1.9375 10.046875 -1.492188 10.359375 -1.078125 C 10.671875 -0.671875 11.0625 -0.46875 11.53125 -0.46875 L 11.53125 0 L 1.171875 0 L 1.171875 -0.46875 C 1.648438 -0.46875 2.046875 -0.671875 2.359375 -1.078125 C 2.671875 -1.492188 2.828125 -1.9375 2.828125 -2.40625 L 2.828125 -19.96875 C 2.828125 -20.4375 2.671875 -20.890625 2.359375 -21.328125 C 2.046875 -21.773438 1.648438 -22 1.171875 -22 Z M 1.171875 -22 "/></g></g></g><g fill="#000000" fill-opacity="1"><g transform="translate(142.355171, 147.028336)"><g><path d="M 13.140625 -15.015625 C 13.296875 -15.835938 13.394531 -16.632812 13.4375 -17.40625 C 13.488281 -18.175781 13.441406 -18.875 13.296875 -19.5 C 13.160156 -20.125 12.894531 -20.625 12.5 -21 C 12.113281 -21.375 11.539062 -21.5625 10.78125 -21.5625 C 10.15625 -21.5625 9.554688 -21.285156 8.984375 -20.734375 C 8.421875 -20.191406 8.140625 -19.382812 8.140625 -18.3125 C 8.140625 -17.71875 8.195312 -17.238281 8.3125 -16.875 C 8.425781 -16.519531 8.535156 -16.234375 8.640625 -16.015625 C 8.753906 -15.796875 8.863281 -15.640625 8.96875 -15.546875 C 9.082031 -15.453125 9.140625 -15.359375 9.140625 -15.265625 C 9.140625 -14.816406 8.882812 -14.390625 8.375 -13.984375 C 7.875 -13.578125 7.140625 -13.375 6.171875 -13.375 C 5.703125 -13.375 5.210938 -13.453125 4.703125 -13.609375 C 4.203125 -13.765625 3.753906 -14.015625 3.359375 -14.359375 C 2.972656 -14.703125 2.671875 -15.164062 2.453125 -15.75 C 2.234375 -16.332031 2.15625 -17.046875 2.21875 -17.890625 C 2.3125 -18.804688 2.578125 -19.640625 3.015625 -20.390625 C 3.453125 -21.140625 4.039062 -21.773438 4.78125 -22.296875 C 5.519531 -22.816406 6.382812 -23.21875 7.375 -23.5 C 8.363281 -23.78125 9.4375 -23.921875 10.59375 -23.921875 C 11.757812 -23.921875 12.914062 -23.785156 14.0625 -23.515625 C 15.207031 -23.253906 16.234375 -22.773438 17.140625 -22.078125 C 18.054688 -21.390625 18.796875 -20.445312 19.359375 -19.25 C 19.921875 -18.0625 20.203125 -16.554688 20.203125 -14.734375 L 20.203125 -4.234375 C 20.203125 -3.453125 20.316406 -2.921875 20.546875 -2.640625 C 20.785156 -2.359375 21.078125 -2.21875 21.421875 -2.21875 C 21.640625 -2.21875 21.859375 -2.265625 22.078125 -2.359375 C 22.304688 -2.453125 22.5 -2.546875 22.65625 -2.640625 L 22.890625 -2.171875 C 21.816406 -1.285156 20.84375 -0.640625 19.96875 -0.234375 C 19.09375 0.171875 18.054688 0.375 16.859375 0.375 C 15.765625 0.375 14.867188 0.0625 14.171875 -0.5625 C 13.484375 -1.1875 13.140625 -2.082031 13.140625 -3.25 C 12.546875 -2.5625 11.898438 -1.960938 11.203125 -1.453125 C 10.609375 -0.984375 9.914062 -0.5625 9.125 -0.1875 C 8.34375 0.1875 7.5 0.375 6.59375 0.375 C 5.65625 0.375 4.816406 0.21875 4.078125 -0.09375 C 3.335938 -0.40625 2.710938 -0.820312 2.203125 -1.34375 C 1.703125 -1.863281 1.328125 -2.453125 1.078125 -3.109375 C 0.828125 -3.765625 0.703125 -4.441406 0.703125 -5.140625 C 0.703125 -6.265625 0.976562 -7.210938 1.53125 -7.984375 C 2.082031 -8.753906 2.769531 -9.40625 3.59375 -9.9375 C 4.425781 -10.46875 5.34375 -10.929688 6.34375 -11.328125 C 7.351562 -11.722656 8.320312 -12.097656 9.25 -12.453125 C 10.175781 -12.816406 10.992188 -13.191406 11.703125 -13.578125 C 12.410156 -13.972656 12.890625 -14.453125 13.140625 -15.015625 Z M 7.8125 -6.125 C 7.8125 -5.363281 8 -4.765625 8.375 -4.328125 C 8.757812 -3.890625 9.265625 -3.671875 9.890625 -3.671875 C 10.296875 -3.671875 10.6875 -3.753906 11.0625 -3.921875 C 11.4375 -4.097656 11.785156 -4.296875 12.109375 -4.515625 C 12.453125 -4.734375 12.796875 -5.003906 13.140625 -5.328125 L 13.140625 -11.484375 C 12.578125 -11.265625 11.988281 -10.972656 11.375 -10.609375 C 10.757812 -10.253906 10.1875 -9.859375 9.65625 -9.421875 C 9.125 -8.984375 8.679688 -8.488281 8.328125 -7.9375 C 7.984375 -7.382812 7.8125 -6.78125 7.8125 -6.125 Z M 7.8125 -6.125 "/></g></g></g><g fill="#000000" fill-opacity="1"><g transform="translate(165.473971, 147.028336)"><g><path d="M 1.171875 -21.90625 L 1.171875 -22.375 C 1.554688 -22.375 2.078125 -22.390625 2.734375 -22.421875 C 3.390625 -22.453125 4.09375 -22.515625 4.84375 -22.609375 C 5.601562 -22.703125 6.378906 -22.847656 7.171875 -23.046875 C 7.972656 -23.253906 8.722656 -23.546875 9.421875 -23.921875 L 9.890625 -23.921875 L 9.890625 -20.25 C 10.171875 -20.53125 10.519531 -20.875 10.9375 -21.28125 C 11.363281 -21.695312 11.875 -22.097656 12.46875 -22.484375 C 13.070312 -22.878906 13.757812 -23.21875 14.53125 -23.5 C 15.300781 -23.78125 16.140625 -23.921875 17.046875 -23.921875 C 18.679688 -23.921875 19.929688 -23.472656 20.796875 -22.578125 C 21.660156 -21.679688 22.09375 -20.484375 22.09375 -18.984375 C 22.09375 -18.222656 21.960938 -17.566406 21.703125 -17.015625 C 21.453125 -16.472656 21.140625 -16.007812 20.765625 -15.625 C 20.390625 -15.25 19.957031 -14.972656 19.46875 -14.796875 C 18.988281 -14.628906 18.507812 -14.546875 18.03125 -14.546875 C 17.09375 -14.578125 16.320312 -14.796875 15.71875 -15.203125 C 15.125 -15.617188 14.828125 -16.046875 14.828125 -16.484375 C 14.828125 -16.578125 14.890625 -16.707031 15.015625 -16.875 C 15.148438 -17.050781 15.285156 -17.269531 15.421875 -17.53125 C 15.566406 -17.800781 15.703125 -18.117188 15.828125 -18.484375 C 15.953125 -18.847656 16.015625 -19.234375 16.015625 -19.640625 C 16.015625 -20.109375 15.910156 -20.457031 15.703125 -20.6875 C 15.503906 -20.925781 15.242188 -21.046875 14.921875 -21.046875 C 14.453125 -21.046875 13.925781 -20.832031 13.34375 -20.40625 C 12.769531 -19.988281 12.222656 -19.414062 11.703125 -18.6875 C 11.179688 -17.96875 10.75 -17.132812 10.40625 -16.1875 C 10.0625 -15.25 9.890625 -14.265625 9.890625 -13.234375 L 9.890625 -2.40625 C 9.890625 -1.9375 10.046875 -1.492188 10.359375 -1.078125 C 10.671875 -0.671875 11.0625 -0.46875 11.53125 -0.46875 L 11.53125 0 L 1.171875 0 L 1.171875 -0.46875 C 1.648438 -0.46875 2.046875 -0.671875 2.359375 -1.078125 C 2.671875 -1.492188 2.828125 -1.9375 2.828125 -2.40625 L 2.828125 -19.875 C 2.828125 -20.34375 2.671875 -20.796875 2.359375 -21.234375 C 2.046875 -21.679688 1.648438 -21.90625 1.171875 -21.90625 Z M 1.171875 -21.90625 "/></g></g></g><g fill="#000000" fill-opacity="1"><g transform="translate(188.027741, 147.028336)"><g><path d="M 0.703125 -23.546875 L 2.359375 -23.546875 C 2.953125 -23.546875 3.53125 -23.71875 4.09375 -24.0625 C 4.65625 -24.40625 5.15625 -24.835938 5.59375 -25.359375 C 6.039062 -25.878906 6.394531 -26.453125 6.65625 -27.078125 C 6.925781 -27.703125 7.0625 -28.316406 7.0625 -28.921875 L 9.421875 -28.921875 L 9.421875 -23.546875 L 12.71875 -23.546875 L 12.71875 -21.1875 L 9.421875 -21.1875 L 9.421875 -5.09375 C 9.421875 -4.269531 9.59375 -3.71875 9.9375 -3.4375 C 10.28125 -3.15625 10.65625 -3.015625 11.0625 -3.015625 C 11.3125 -3.015625 11.5625 -3.050781 11.8125 -3.125 C 12.070312 -3.207031 12.28125 -3.296875 12.4375 -3.390625 L 12.8125 -2.546875 C 12.34375 -2.015625 11.820312 -1.523438 11.25 -1.078125 C 10.75 -0.734375 10.160156 -0.40625 9.484375 -0.09375 C 8.816406 0.21875 8.054688 0.375 7.203125 0.375 C 5.796875 0.375 4.632812 -0.0625 3.71875 -0.9375 C 2.8125 -1.820312 2.359375 -3.171875 2.359375 -4.984375 L 2.359375 -21.1875 L 0.703125 -21.1875 Z M 0.703125 -23.546875 "/></g></g></g><g fill="#000000" fill-opacity="1"><g transform="translate(201.54118, 147.028336)"><g><path d="M 12.15625 -23.921875 C 13 -23.921875 13.882812 -23.800781 14.8125 -23.5625 C 15.738281 -23.332031 16.578125 -22.960938 17.328125 -22.453125 C 18.078125 -21.953125 18.695312 -21.300781 19.1875 -20.5 C 19.675781 -19.707031 19.921875 -18.742188 19.921875 -17.609375 C 19.921875 -16.640625 19.644531 -15.695312 19.09375 -14.78125 C 18.539062 -13.875 17.769531 -13.066406 16.78125 -12.359375 C 15.800781 -11.648438 14.609375 -11.078125 13.203125 -10.640625 C 11.804688 -10.203125 10.25 -9.984375 8.53125 -9.984375 L 8.140625 -9.984375 C 8.335938 -8.472656 8.671875 -7.238281 9.140625 -6.28125 C 9.609375 -5.320312 10.144531 -4.5625 10.75 -4 C 11.363281 -3.4375 12 -3.050781 12.65625 -2.84375 C 13.320312 -2.644531 13.921875 -2.546875 14.453125 -2.546875 C 15.585938 -2.546875 16.617188 -2.785156 17.546875 -3.265625 C 18.472656 -3.753906 19.21875 -4.21875 19.78125 -4.65625 L 20.109375 -4.328125 C 19.859375 -3.921875 19.507812 -3.441406 19.0625 -2.890625 C 18.625 -2.347656 18.09375 -1.832031 17.46875 -1.34375 C 16.84375 -0.851562 16.085938 -0.441406 15.203125 -0.109375 C 14.328125 0.210938 13.3125 0.375 12.15625 0.375 C 10.519531 0.375 9.003906 0.101562 7.609375 -0.4375 C 6.210938 -0.988281 5.003906 -1.78125 3.984375 -2.8125 C 2.960938 -3.851562 2.160156 -5.117188 1.578125 -6.609375 C 0.992188 -8.109375 0.703125 -9.78125 0.703125 -11.625 C 0.703125 -13.507812 0.992188 -15.207031 1.578125 -16.71875 C 2.160156 -18.226562 2.960938 -19.515625 3.984375 -20.578125 C 5.003906 -21.648438 6.210938 -22.472656 7.609375 -23.046875 C 9.003906 -23.628906 10.519531 -23.921875 12.15625 -23.921875 Z M 12.15625 -21.5625 C 11.582031 -21.5625 11.03125 -21.40625 10.5 -21.09375 C 9.96875 -20.78125 9.503906 -20.242188 9.109375 -19.484375 C 8.722656 -18.734375 8.425781 -17.738281 8.21875 -16.5 C 8.007812 -15.257812 7.9375 -13.71875 8 -11.875 C 9.507812 -12.28125 10.6875 -13.007812 11.53125 -14.0625 C 12.382812 -15.113281 12.953125 -16.195312 13.234375 -17.3125 C 13.515625 -18.425781 13.550781 -19.410156 13.34375 -20.265625 C 13.144531 -21.128906 12.75 -21.5625 12.15625 -21.5625 Z M 12.15625 -21.5625 "/></g></g></g><path stroke-linecap="butt" transform="matrix(0.7496, 0, 0, 0.7496, 4.875778, 152.45478)" fill="none" stroke-linejoin="miter" d="M -0.0010378 1.498592 L 286.990591 1.498592 " stroke="#000000" stroke-width="3" stroke-opacity="1" stroke-miterlimit="4"/><g fill="#000000" fill-opacity="1"><g transform="translate(30.658672, 173.887369)"><g><path d="M 4.015625 -12.078125 C 4.628906 -12.078125 5.164062 -11.941406 5.625 -11.671875 C 6.070312 -11.390625 6.4375 -11.019531 6.71875 -10.5625 C 7.007812 -10.113281 7.210938 -9.609375 7.328125 -9.046875 C 7.453125 -8.484375 7.492188 -7.921875 7.453125 -7.359375 C 7.398438 -6.785156 7.269531 -6.238281 7.0625 -5.71875 C 6.832031 -5.195312 6.535156 -4.765625 6.171875 -4.421875 C 6.003906 -4.273438 5.957031 -4.101562 6.03125 -3.90625 L 7.21875 -0.640625 C 7.269531 -0.484375 7.253906 -0.34375 7.171875 -0.21875 C 7.066406 -0.0703125 6.929688 0 6.765625 0 L 5.8125 0 C 5.582031 0 5.429688 -0.101562 5.359375 -0.3125 L 4.28125 -3.28125 C 4.207031 -3.488281 4.054688 -3.59375 3.828125 -3.59375 L 3.171875 -3.59375 C 3.035156 -3.59375 2.921875 -3.550781 2.828125 -3.46875 C 2.734375 -3.363281 2.6875 -3.242188 2.6875 -3.109375 L 2.6875 -0.484375 C 2.6875 -0.347656 2.644531 -0.234375 2.5625 -0.140625 C 2.457031 -0.046875 2.335938 0 2.203125 0 L 1.296875 0 C 1.171875 0 1.0625 -0.046875 0.96875 -0.140625 C 0.875 -0.234375 0.828125 -0.347656 0.828125 -0.484375 L 0.828125 -11.609375 C 0.828125 -11.734375 0.875 -11.847656 0.96875 -11.953125 C 1.0625 -12.035156 1.171875 -12.078125 1.296875 -12.078125 Z M 2.6875 -5.9375 C 2.6875 -5.800781 2.734375 -5.691406 2.828125 -5.609375 C 2.921875 -5.503906 3.035156 -5.453125 3.171875 -5.453125 L 4.0625 -5.453125 C 4.394531 -5.453125 4.675781 -5.570312 4.90625 -5.8125 C 5.144531 -6.050781 5.320312 -6.34375 5.4375 -6.6875 C 5.5625 -7.039062 5.625 -7.425781 5.625 -7.84375 C 5.625 -8.25 5.566406 -8.628906 5.453125 -8.984375 C 5.335938 -9.335938 5.160156 -9.632812 4.921875 -9.875 C 4.691406 -10.101562 4.40625 -10.21875 4.0625 -10.21875 L 3.171875 -10.21875 C 3.035156 -10.21875 2.921875 -10.175781 2.828125 -10.09375 C 2.734375 -9.988281 2.6875 -9.875 2.6875 -9.75 Z M 2.6875 -5.9375 "/></g></g></g><g fill="#000000" fill-opacity="1"><g transform="translate(45.483502, 173.887369)"><g><path d="M 6.765625 -10.703125 C 6.765625 -10.566406 6.71875 -10.457031 6.625 -10.375 C 6.53125 -10.269531 6.414062 -10.21875 6.28125 -10.21875 L 3.171875 -10.21875 C 3.035156 -10.21875 2.921875 -10.175781 2.828125 -10.09375 C 2.734375 -9.988281 2.6875 -9.875 2.6875 -9.75 L 2.6875 -8.75 C 2.6875 -8.625 2.734375 -8.515625 2.828125 -8.421875 C 2.921875 -8.328125 3.035156 -8.28125 3.171875 -8.28125 L 5.21875 -8.28125 C 5.363281 -8.28125 5.488281 -8.234375 5.59375 -8.140625 C 5.675781 -8.046875 5.71875 -7.929688 5.71875 -7.796875 L 5.71875 -6.90625 C 5.71875 -6.769531 5.675781 -6.65625 5.59375 -6.5625 C 5.488281 -6.457031 5.363281 -6.40625 5.21875 -6.40625 L 3.171875 -6.40625 C 3.035156 -6.40625 2.921875 -6.363281 2.828125 -6.28125 C 2.734375 -6.175781 2.6875 -6.0625 2.6875 -5.9375 L 2.6875 -2.34375 C 2.6875 -2.207031 2.734375 -2.097656 2.828125 -2.015625 C 2.921875 -1.910156 3.035156 -1.859375 3.171875 -1.859375 L 6.28125 -1.859375 C 6.414062 -1.859375 6.53125 -1.816406 6.625 -1.734375 C 6.71875 -1.628906 6.765625 -1.515625 6.765625 -1.390625 L 6.765625 -0.484375 C 6.765625 -0.347656 6.71875 -0.234375 6.625 -0.140625 C 6.53125 -0.046875 6.414062 0 6.28125 0 L 1.296875 0 C 1.171875 0 1.0625 -0.046875 0.96875 -0.140625 C 0.875 -0.234375 0.828125 -0.347656 0.828125 -0.484375 L 0.828125 -11.609375 C 0.828125 -11.734375 0.875 -11.847656 0.96875 -11.953125 C 1.0625 -12.035156 1.171875 -12.078125 1.296875 -12.078125 L 6.28125 -12.078125 C 6.414062 -12.078125 6.53125 -12.035156 6.625 -11.953125 C 6.71875 -11.847656 6.765625 -11.734375 6.765625 -11.609375 Z M 6.765625 -10.703125 "/></g></g></g><g fill="#000000" fill-opacity="1"><g transform="translate(59.599364, 173.887369)"><g><path d="M 9.796875 -2.234375 C 9.859375 -2.203125 9.898438 -2.148438 9.921875 -2.078125 C 9.929688 -2.003906 9.914062 -1.9375 9.875 -1.875 L 9.875 -1.859375 C 9.414062 -1.242188 8.851562 -0.785156 8.1875 -0.484375 C 7.519531 -0.160156 6.773438 0 5.953125 0 C 4.273438 0 2.96875 -0.617188 2.03125 -1.859375 C 1.226562 -2.953125 0.828125 -4.34375 0.828125 -6.03125 C 0.828125 -6.875 0.929688 -7.648438 1.140625 -8.359375 C 1.335938 -9.054688 1.632812 -9.671875 2.03125 -10.203125 C 2.488281 -10.828125 3.050781 -11.300781 3.71875 -11.625 C 4.382812 -11.925781 5.128906 -12.078125 5.953125 -12.078125 C 6.773438 -12.078125 7.519531 -11.925781 8.1875 -11.625 C 8.851562 -11.300781 9.414062 -10.828125 9.875 -10.203125 C 9.914062 -10.148438 9.929688 -10.082031 9.921875 -10 C 9.898438 -9.925781 9.859375 -9.875 9.796875 -9.84375 L 8.625 -9.15625 C 8.488281 -9.09375 8.378906 -9.113281 8.296875 -9.21875 C 8.109375 -9.4375 7.910156 -9.613281 7.703125 -9.75 C 7.484375 -9.875 7.269531 -9.976562 7.0625 -10.0625 C 6.84375 -10.125 6.644531 -10.164062 6.46875 -10.1875 C 6.269531 -10.207031 6.097656 -10.21875 5.953125 -10.21875 C 5.703125 -10.21875 5.394531 -10.179688 5.03125 -10.109375 C 4.65625 -10.015625 4.296875 -9.828125 3.953125 -9.546875 C 3.597656 -9.253906 3.300781 -8.835938 3.0625 -8.296875 C 2.8125 -7.734375 2.6875 -6.976562 2.6875 -6.03125 C 2.6875 -5.082031 2.8125 -4.335938 3.0625 -3.796875 C 3.300781 -3.242188 3.597656 -2.820312 3.953125 -2.53125 C 4.296875 -2.25 4.65625 -2.070312 5.03125 -2 C 5.394531 -1.90625 5.703125 -1.859375 5.953125 -1.859375 C 6.097656 -1.859375 6.269531 -1.867188 6.46875 -1.890625 C 6.644531 -1.910156 6.84375 -1.960938 7.0625 -2.046875 C 7.269531 -2.109375 7.484375 -2.207031 7.703125 -2.34375 C 7.910156 -2.46875 8.109375 -2.644531 8.296875 -2.875 C 8.378906 -2.976562 8.488281 -2.992188 8.625 -2.921875 Z M 9.796875 -2.234375 "/></g></g></g><g fill="#000000" fill-opacity="1"><g transform="translate(76.880821, 173.887369)"><g><path d="M 5.40625 0 C 3.875 0 2.691406 -0.632812 1.859375 -1.90625 C 1.171875 -2.988281 0.828125 -4.363281 0.828125 -6.03125 C 0.828125 -6.851562 0.914062 -7.617188 1.09375 -8.328125 C 1.269531 -9.015625 1.523438 -9.625 1.859375 -10.15625 C 2.691406 -11.4375 3.875 -12.078125 5.40625 -12.078125 C 6.9375 -12.078125 8.117188 -11.4375 8.953125 -10.15625 C 9.296875 -9.625 9.550781 -9.015625 9.71875 -8.328125 C 9.894531 -7.617188 9.984375 -6.851562 9.984375 -6.03125 C 9.984375 -4.363281 9.640625 -2.988281 8.953125 -1.90625 C 8.117188 -0.632812 6.9375 0 5.40625 0 Z M 5.40625 -10.21875 C 4.988281 -10.21875 4.628906 -10.140625 4.328125 -9.984375 C 4.035156 -9.828125 3.789062 -9.617188 3.59375 -9.359375 C 3.382812 -9.097656 3.21875 -8.8125 3.09375 -8.5 C 2.976562 -8.1875 2.890625 -7.875 2.828125 -7.5625 C 2.765625 -7.25 2.726562 -6.957031 2.71875 -6.6875 C 2.695312 -6.414062 2.6875 -6.195312 2.6875 -6.03125 C 2.6875 -5.863281 2.695312 -5.648438 2.71875 -5.390625 C 2.726562 -5.117188 2.765625 -4.828125 2.828125 -4.515625 C 2.890625 -4.210938 2.976562 -3.90625 3.09375 -3.59375 C 3.21875 -3.269531 3.382812 -2.984375 3.59375 -2.734375 C 3.789062 -2.472656 4.035156 -2.265625 4.328125 -2.109375 C 4.628906 -1.941406 4.988281 -1.859375 5.40625 -1.859375 C 5.820312 -1.859375 6.179688 -1.941406 6.484375 -2.109375 C 6.773438 -2.265625 7.023438 -2.472656 7.234375 -2.734375 C 7.429688 -2.984375 7.59375 -3.269531 7.71875 -3.59375 C 7.832031 -3.90625 7.925781 -4.210938 8 -4.515625 C 8.050781 -4.828125 8.085938 -5.117188 8.109375 -5.390625 C 8.117188 -5.648438 8.125 -5.863281 8.125 -6.03125 C 8.125 -6.195312 8.117188 -6.414062 8.109375 -6.6875 C 8.085938 -6.957031 8.050781 -7.25 8 -7.5625 C 7.925781 -7.875 7.832031 -8.1875 7.71875 -8.5 C 7.59375 -8.8125 7.429688 -9.097656 7.234375 -9.359375 C 7.023438 -9.617188 6.773438 -9.828125 6.484375 -9.984375 C 6.179688 -10.140625 5.820312 -10.21875 5.40625 -10.21875 Z M 5.40625 -10.21875 "/></g></g></g><g fill="#000000" fill-opacity="1"><g transform="translate(94.228231, 173.887369)"><g><path d="M 8.03125 -12.078125 C 8.15625 -12.078125 8.269531 -12.035156 8.375 -11.953125 C 8.457031 -11.847656 8.5 -11.734375 8.5 -11.609375 L 8.5 -0.484375 C 8.5 -0.347656 8.457031 -0.234375 8.375 -0.140625 C 8.269531 -0.046875 8.15625 0 8.03125 0 L 6.765625 0 C 6.566406 0 6.421875 -0.09375 6.328125 -0.28125 L 3.03125 -7.328125 C 3 -7.421875 2.929688 -7.457031 2.828125 -7.4375 C 2.734375 -7.414062 2.6875 -7.351562 2.6875 -7.25 L 2.6875 -0.484375 C 2.6875 -0.347656 2.644531 -0.234375 2.5625 -0.140625 C 2.457031 -0.046875 2.332031 0 2.1875 0 L 1.296875 0 C 1.171875 0 1.0625 -0.046875 0.96875 -0.140625 C 0.875 -0.234375 0.828125 -0.347656 0.828125 -0.484375 L 0.828125 -11.609375 C 0.828125 -11.734375 0.875 -11.847656 0.96875 -11.953125 C 1.0625 -12.035156 1.171875 -12.078125 1.296875 -12.078125 L 2.578125 -12.078125 C 2.785156 -12.078125 2.925781 -11.984375 3 -11.796875 L 6.296875 -4.75 C 6.328125 -4.65625 6.398438 -4.625 6.515625 -4.65625 C 6.597656 -4.675781 6.640625 -4.734375 6.640625 -4.828125 L 6.640625 -11.609375 C 6.640625 -11.734375 6.691406 -11.847656 6.796875 -11.953125 C 6.890625 -12.035156 7.003906 -12.078125 7.140625 -12.078125 Z M 8.03125 -12.078125 "/></g></g></g><g fill="#000000" fill-opacity="1"><g transform="translate(110.091772, 173.887369)"><g><path d="M 9.859375 -10.21875 C 10.253906 -9.675781 10.554688 -9.054688 10.765625 -8.359375 C 10.972656 -7.648438 11.078125 -6.878906 11.078125 -6.046875 C 11.078125 -5.203125 10.972656 -4.425781 10.765625 -3.71875 C 10.554688 -3.019531 10.253906 -2.40625 9.859375 -1.875 C 9.535156 -1.4375 9.140625 -1.066406 8.671875 -0.765625 C 8.578125 -0.703125 8.515625 -0.617188 8.484375 -0.515625 C 8.441406 -0.398438 8.441406 -0.289062 8.484375 -0.1875 L 8.734375 0.515625 C 8.785156 0.628906 8.785156 0.75 8.734375 0.875 C 8.671875 1 8.578125 1.082031 8.453125 1.125 L 7.609375 1.4375 C 7.492188 1.476562 7.375 1.472656 7.25 1.421875 C 7.132812 1.359375 7.046875 1.265625 6.984375 1.140625 L 6.6875 0.3125 C 6.601562 0.09375 6.445312 -0.015625 6.21875 -0.015625 C 6.175781 -0.00390625 6.128906 0 6.078125 0 L 5.953125 0 C 5.128906 0 4.382812 -0.160156 3.71875 -0.484375 C 3.050781 -0.785156 2.488281 -1.25 2.03125 -1.875 C 1.632812 -2.40625 1.335938 -3.019531 1.140625 -3.71875 C 0.929688 -4.425781 0.828125 -5.203125 0.828125 -6.046875 C 0.828125 -7.742188 1.226562 -9.132812 2.03125 -10.21875 C 2.96875 -11.457031 4.273438 -12.078125 5.953125 -12.078125 C 6.773438 -12.078125 7.515625 -11.925781 8.171875 -11.625 C 8.835938 -11.300781 9.398438 -10.832031 9.859375 -10.21875 Z M 7.453125 -3 C 7.515625 -2.820312 7.632812 -2.71875 7.8125 -2.6875 C 7.988281 -2.65625 8.140625 -2.703125 8.265625 -2.828125 C 8.535156 -3.148438 8.765625 -3.570312 8.953125 -4.09375 C 9.128906 -4.59375 9.21875 -5.242188 9.21875 -6.046875 C 9.21875 -6.984375 9.097656 -7.734375 8.859375 -8.296875 C 8.597656 -8.835938 8.300781 -9.253906 7.96875 -9.546875 C 7.613281 -9.828125 7.25 -10.015625 6.875 -10.109375 C 6.5 -10.179688 6.191406 -10.21875 5.953125 -10.21875 C 5.703125 -10.21875 5.394531 -10.179688 5.03125 -10.109375 C 4.65625 -10.015625 4.296875 -9.828125 3.953125 -9.546875 C 3.597656 -9.253906 3.300781 -8.835938 3.0625 -8.296875 C 2.8125 -7.734375 2.6875 -6.984375 2.6875 -6.046875 C 2.6875 -5.335938 2.757812 -4.738281 2.90625 -4.25 C 3.039062 -3.769531 3.226562 -3.375 3.46875 -3.0625 C 3.695312 -2.75 3.945312 -2.507812 4.21875 -2.34375 C 4.488281 -2.175781 4.757812 -2.054688 5.03125 -1.984375 C 5.125 -1.953125 5.21875 -1.957031 5.3125 -2 C 5.382812 -2.019531 5.453125 -2.0625 5.515625 -2.125 C 5.578125 -2.175781 5.617188 -2.25 5.640625 -2.34375 C 5.648438 -2.425781 5.640625 -2.519531 5.609375 -2.625 L 5.53125 -2.8125 C 5.476562 -2.9375 5.488281 -3.0625 5.5625 -3.1875 C 5.613281 -3.300781 5.695312 -3.382812 5.8125 -3.4375 L 6.65625 -3.734375 C 6.78125 -3.796875 6.898438 -3.796875 7.015625 -3.734375 C 7.140625 -3.671875 7.226562 -3.582031 7.28125 -3.46875 Z M 7.453125 -3 "/></g></g></g><g fill="#000000" fill-opacity="1"><g transform="translate(128.527356, 173.887369)"><g><path d="M 7.375 -12.078125 C 7.5 -12.078125 7.613281 -12.035156 7.71875 -11.953125 C 7.800781 -11.847656 7.84375 -11.734375 7.84375 -11.609375 L 7.84375 -3.515625 C 7.84375 -3.023438 7.753906 -2.566406 7.578125 -2.140625 C 7.390625 -1.710938 7.140625 -1.335938 6.828125 -1.015625 C 6.503906 -0.703125 6.128906 -0.457031 5.703125 -0.28125 C 5.273438 -0.09375 4.816406 0 4.328125 0 C 3.847656 0 3.398438 -0.09375 2.984375 -0.28125 C 2.554688 -0.46875 2.179688 -0.71875 1.859375 -1.03125 C 1.546875 -1.351562 1.296875 -1.726562 1.109375 -2.15625 C 0.921875 -2.570312 0.828125 -3.023438 0.828125 -3.515625 L 0.828125 -11.609375 C 0.828125 -11.734375 0.875 -11.847656 0.96875 -11.953125 C 1.0625 -12.035156 1.171875 -12.078125 1.296875 -12.078125 L 2.1875 -12.078125 C 2.332031 -12.078125 2.457031 -12.035156 2.5625 -11.953125 C 2.644531 -11.847656 2.6875 -11.734375 2.6875 -11.609375 L 2.6875 -3.5625 C 2.6875 -3.332031 2.726562 -3.113281 2.8125 -2.90625 C 2.90625 -2.695312 3.03125 -2.515625 3.1875 -2.359375 C 3.332031 -2.203125 3.507812 -2.082031 3.71875 -2 C 3.925781 -1.90625 4.148438 -1.859375 4.390625 -1.859375 C 4.835938 -1.859375 5.210938 -2.015625 5.515625 -2.328125 C 5.828125 -2.628906 5.984375 -3.007812 5.984375 -3.46875 L 5.984375 -11.609375 C 5.984375 -11.734375 6.03125 -11.847656 6.125 -11.953125 C 6.226562 -12.035156 6.347656 -12.078125 6.484375 -12.078125 Z M 7.375 -12.078125 "/></g></g></g><g fill="#000000" fill-opacity="1"><g transform="translate(143.731393, 173.887369)"><g><path d="M 2.203125 -12.078125 C 2.335938 -12.078125 2.457031 -12.035156 2.5625 -11.953125 C 2.644531 -11.847656 2.6875 -11.734375 2.6875 -11.609375 L 2.6875 -0.484375 C 2.6875 -0.347656 2.644531 -0.234375 2.5625 -0.140625 C 2.457031 -0.046875 2.335938 0 2.203125 0 L 1.296875 0 C 1.171875 0 1.0625 -0.046875 0.96875 -0.140625 C 0.875 -0.234375 0.828125 -0.347656 0.828125 -0.484375 L 0.828125 -11.609375 C 0.828125 -11.734375 0.875 -11.847656 0.96875 -11.953125 C 1.0625 -12.035156 1.171875 -12.078125 1.296875 -12.078125 Z M 2.203125 -12.078125 "/></g></g></g><g fill="#000000" fill-opacity="1"><g transform="translate(153.774853, 173.887369)"><g><path d="M 3.78125 -12.078125 C 4.726562 -12.078125 5.445312 -11.820312 5.9375 -11.3125 C 6.414062 -10.789062 6.65625 -10.054688 6.65625 -9.109375 C 6.65625 -9.003906 6.625 -8.921875 6.5625 -8.859375 C 6.488281 -8.773438 6.394531 -8.734375 6.28125 -8.734375 L 5.171875 -8.734375 C 5.066406 -8.734375 4.976562 -8.773438 4.90625 -8.859375 C 4.832031 -8.921875 4.796875 -9.003906 4.796875 -9.109375 L 4.796875 -9.234375 C 4.796875 -9.648438 4.710938 -9.953125 4.546875 -10.140625 C 4.378906 -10.316406 4.140625 -10.40625 3.828125 -10.40625 C 3.503906 -10.40625 3.257812 -10.316406 3.09375 -10.140625 C 2.914062 -9.953125 2.828125 -9.648438 2.828125 -9.234375 C 2.828125 -9.015625 2.859375 -8.8125 2.921875 -8.625 C 2.972656 -8.425781 3.066406 -8.226562 3.203125 -8.03125 C 3.328125 -7.832031 3.5 -7.625 3.71875 -7.40625 C 3.925781 -7.175781 4.191406 -6.925781 4.515625 -6.65625 C 4.921875 -6.320312 5.269531 -6.003906 5.5625 -5.703125 C 5.832031 -5.390625 6.050781 -5.09375 6.21875 -4.8125 C 6.382812 -4.519531 6.503906 -4.222656 6.578125 -3.921875 C 6.640625 -3.628906 6.671875 -3.3125 6.671875 -2.96875 C 6.671875 -2.007812 6.429688 -1.28125 5.953125 -0.78125 C 5.453125 -0.257812 4.722656 0 3.765625 0 C 2.796875 0 2.0625 -0.257812 1.5625 -0.78125 C 1.070312 -1.28125 0.828125 -2.007812 0.828125 -2.96875 L 0.828125 -3.328125 C 0.828125 -3.429688 0.863281 -3.519531 0.9375 -3.59375 C 1 -3.65625 1.082031 -3.6875 1.1875 -3.6875 L 2.3125 -3.6875 C 2.40625 -3.6875 2.492188 -3.65625 2.578125 -3.59375 C 2.648438 -3.519531 2.6875 -3.429688 2.6875 -3.328125 L 2.6875 -2.859375 C 2.6875 -2.429688 2.773438 -2.132812 2.953125 -1.96875 C 3.128906 -1.789062 3.375 -1.703125 3.6875 -1.703125 C 4.007812 -1.703125 4.265625 -1.789062 4.453125 -1.96875 C 4.628906 -2.132812 4.71875 -2.429688 4.71875 -2.859375 C 4.71875 -3.066406 4.6875 -3.269531 4.625 -3.46875 C 4.570312 -3.664062 4.484375 -3.863281 4.359375 -4.0625 C 4.222656 -4.257812 4.050781 -4.472656 3.84375 -4.703125 C 3.625 -4.921875 3.351562 -5.160156 3.03125 -5.421875 C 2.625 -5.765625 2.285156 -6.082031 2.015625 -6.375 C 1.734375 -6.675781 1.515625 -6.972656 1.359375 -7.265625 C 1.179688 -7.566406 1.054688 -7.863281 0.984375 -8.15625 C 0.910156 -8.457031 0.875 -8.773438 0.875 -9.109375 C 0.875 -10.054688 1.113281 -10.789062 1.59375 -11.3125 C 2.082031 -11.820312 2.8125 -12.078125 3.78125 -12.078125 Z M 3.78125 -12.078125 "/></g></g></g><g fill="#000000" fill-opacity="1"><g transform="translate(167.808284, 173.887369)"><g><path d="M 7.625 -10.703125 C 7.625 -10.566406 7.582031 -10.457031 7.5 -10.375 C 7.40625 -10.269531 7.285156 -10.21875 7.140625 -10.21875 L 5.640625 -10.21875 C 5.503906 -10.21875 5.394531 -10.175781 5.3125 -10.09375 C 5.207031 -9.988281 5.15625 -9.875 5.15625 -9.75 L 5.15625 -0.484375 C 5.15625 -0.347656 5.113281 -0.234375 5.03125 -0.140625 C 4.925781 -0.046875 4.804688 0 4.671875 0 L 3.78125 0 C 3.644531 0 3.53125 -0.046875 3.4375 -0.140625 C 3.34375 -0.234375 3.296875 -0.347656 3.296875 -0.484375 L 3.296875 -9.75 C 3.296875 -9.875 3.253906 -9.988281 3.171875 -10.09375 C 3.066406 -10.175781 2.945312 -10.21875 2.8125 -10.21875 L 1.296875 -10.21875 C 1.171875 -10.21875 1.0625 -10.269531 0.96875 -10.375 C 0.875 -10.457031 0.828125 -10.566406 0.828125 -10.703125 L 0.828125 -11.609375 C 0.828125 -11.734375 0.875 -11.847656 0.96875 -11.953125 C 1.0625 -12.035156 1.171875 -12.078125 1.296875 -12.078125 L 7.140625 -12.078125 C 7.285156 -12.078125 7.40625 -12.035156 7.5 -11.953125 C 7.582031 -11.847656 7.625 -11.734375 7.625 -11.609375 Z M 7.625 -10.703125 "/></g></g></g><g fill="#000000" fill-opacity="1"><g transform="translate(182.797985, 173.887369)"><g><path d="M 7.53125 0 C 7.300781 0 7.148438 -0.117188 7.078125 -0.359375 C 7.035156 -0.484375 6.988281 -0.660156 6.9375 -0.890625 C 6.875 -1.109375 6.789062 -1.410156 6.6875 -1.796875 C 6.613281 -2.035156 6.457031 -2.15625 6.21875 -2.15625 L 3.578125 -2.15625 C 3.335938 -2.15625 3.175781 -2.035156 3.09375 -1.796875 C 3.019531 -1.503906 2.957031 -1.234375 2.90625 -0.984375 C 2.832031 -0.742188 2.769531 -0.535156 2.71875 -0.359375 C 2.644531 -0.117188 2.492188 0 2.265625 0 L 1.3125 0 C 1.164062 0 1.039062 -0.0664062 0.9375 -0.203125 C 0.84375 -0.316406 0.816406 -0.453125 0.859375 -0.609375 C 0.960938 -1.015625 1.097656 -1.53125 1.265625 -2.15625 C 1.429688 -2.769531 1.613281 -3.441406 1.8125 -4.171875 C 2.007812 -4.878906 2.210938 -5.617188 2.421875 -6.390625 C 2.617188 -7.148438 2.8125 -7.878906 3 -8.578125 C 3.175781 -9.253906 3.34375 -9.875 3.5 -10.4375 C 3.632812 -10.988281 3.75 -11.414062 3.84375 -11.71875 C 3.863281 -11.832031 3.914062 -11.921875 4 -11.984375 C 4.09375 -12.046875 4.191406 -12.078125 4.296875 -12.078125 L 5.484375 -12.078125 C 5.597656 -12.078125 5.695312 -12.046875 5.78125 -11.984375 C 5.875 -11.921875 5.929688 -11.832031 5.953125 -11.71875 C 6.335938 -10.269531 6.671875 -9.03125 6.953125 -8 C 7.234375 -6.96875 7.46875 -6.097656 7.65625 -5.390625 C 7.832031 -4.679688 7.984375 -4.113281 8.109375 -3.6875 C 8.222656 -3.257812 8.316406 -2.921875 8.390625 -2.671875 C 8.453125 -2.410156 8.507812 -2.210938 8.5625 -2.078125 C 8.59375 -1.929688 8.625 -1.800781 8.65625 -1.6875 C 8.6875 -1.5625 8.722656 -1.421875 8.765625 -1.265625 C 8.796875 -1.109375 8.851562 -0.890625 8.9375 -0.609375 C 8.976562 -0.453125 8.953125 -0.316406 8.859375 -0.203125 C 8.753906 -0.0664062 8.625 0 8.46875 0 Z M 3.859375 -4.625 C 3.816406 -4.476562 3.84375 -4.34375 3.9375 -4.21875 C 4.039062 -4.082031 4.164062 -4.015625 4.3125 -4.015625 L 5.46875 -4.015625 C 5.625 -4.015625 5.753906 -4.082031 5.859375 -4.21875 C 5.953125 -4.34375 5.976562 -4.476562 5.9375 -4.625 C 5.84375 -4.9375 5.753906 -5.269531 5.671875 -5.625 C 5.566406 -5.976562 5.460938 -6.347656 5.359375 -6.734375 C 5.328125 -6.859375 5.265625 -6.953125 5.171875 -7.015625 C 5.085938 -7.078125 4.992188 -7.109375 4.890625 -7.109375 C 4.796875 -7.109375 4.703125 -7.078125 4.609375 -7.015625 C 4.523438 -6.953125 4.46875 -6.859375 4.4375 -6.734375 C 4.332031 -6.390625 4.238281 -6.039062 4.15625 -5.6875 C 4.050781 -5.332031 3.953125 -4.976562 3.859375 -4.625 Z M 3.859375 -4.625 "/></g></g></g><g clip-path="url(#946bc584f8)"><g clip-path="url(#71a61fb2e5)"><g clip-path="url(#a3c17806e8)"><path fill="#ec0c8c" d="M 99.632812 79.917969 C 96.625 69.570312 97.804688 58.789062 107.734375 50.800781 C 108.90625 49.855469 110.199219 49.003906 111.664062 48.632812 C 113.4375 48.183594 115.332031 48.488281 117.0625 49.085938 C 121.59375 50.640625 125.371094 54.253906 127.132812 58.707031 C 128.894531 63.160156 128.605469 68.378906 126.367188 72.613281 C 120.324219 84.035156 114.695312 91.296875 117.023438 105.402344 C 114.308594 104.289062 112.234375 102.042969 110.394531 99.757812 C 105.808594 94.066406 101.714844 87.097656 99.632812 79.917969 Z M 99.632812 79.917969 " fill-opacity="1" fill-rule="nonzero"/></g></g></g><g clip-path="url(#e8f07f4911)"><g clip-path="url(#727b333887)"><g clip-path="url(#cd45026a6e)"><path fill="#00aeef" d="M 86.457031 97.671875 C 80.238281 93.898438 75.90625 88 77.195312 79.496094 C 77.347656 78.492188 77.597656 77.476562 78.15625 76.625 C 78.835938 75.59375 79.914062 74.878906 81.046875 74.386719 C 84.011719 73.089844 87.539062 73.160156 90.445312 74.574219 C 93.355469 75.984375 95.59375 78.707031 96.414062 81.835938 C 98.621094 90.273438 99.140625 96.449219 106.734375 102.398438 C 104.875 103.085938 102.820312 102.917969 100.863281 102.621094 C 95.984375 101.882812 90.769531 100.289062 86.457031 97.671875 Z M 86.457031 97.671875 " fill-opacity="1" fill-rule="nonzero"/></g></g></g><g clip-path="url(#7ef661b038)"><g clip-path="url(#2e4b43c168)"><g clip-path="url(#3865c7bba6)"><path fill="#fff202" d="M 124.382812 85.738281 C 128.089844 79.480469 133.941406 75.082031 142.457031 76.277344 C 143.464844 76.417969 144.480469 76.660156 145.339844 77.210938 C 146.378906 77.875 147.101562 78.949219 147.609375 80.078125 C 148.9375 83.023438 148.902344 86.550781 147.523438 89.476562 C 146.144531 92.398438 143.445312 94.667969 140.328125 95.519531 C 131.914062 97.820312 125.742188 98.40625 119.875 106.066406 C 119.171875 104.214844 119.316406 102.15625 119.589844 100.195312 C 120.273438 95.3125 121.8125 90.078125 124.382812 85.738281 Z M 124.382812 85.738281 " fill-opacity="1" fill-rule="nonzero"/></g></g></g></svg>